<svg width="131" height="33" viewBox="0 0 131 33" fill="none" xmlns="http://www.w3.org/2000/svg">
<g clip-path="url(#clip0_4002_18525)">
<path d="M2.31407 19.4668C1.86956 19.4668 1.43812 19.415 1.01976 19.2984C0.601397 19.1818 0.261477 19.0393 0 18.8579L0.50988 17.7178C0.758283 17.8733 1.04591 18.0028 1.35968 18.1065C1.68653 18.2101 2.0003 18.249 2.31407 18.249C2.91547 18.249 3.20309 18.1065 3.20309 17.8085C3.20309 17.653 3.11158 17.5364 2.94162 17.4717C2.77166 17.3939 2.49711 17.3162 2.13104 17.2255C1.71267 17.1348 1.37275 17.0441 1.0982 16.9405C0.823653 16.8368 0.588323 16.6684 0.379142 16.4482C0.16996 16.2279 0.0784431 15.93 0.0784431 15.5413C0.0784431 15.2045 0.16996 14.9065 0.352994 14.6474C0.536028 14.3753 0.810579 14.168 1.16357 14.0126C1.52964 13.8571 1.97415 13.7794 2.51018 13.7794C2.87625 13.7794 3.22924 13.8182 3.58223 13.9089C3.93523 13.9866 4.23593 14.1032 4.51048 14.2587L4.02675 15.3988C3.50379 15.1138 2.99391 14.9842 2.51018 14.9842C2.19641 14.9842 1.97415 15.036 1.83034 15.1267C1.68653 15.2174 1.62116 15.334 1.62116 15.4765C1.62116 15.619 1.6996 15.7356 1.86956 15.8004C2.03952 15.8781 2.301 15.9429 2.68014 16.0207C3.0985 16.1113 3.43842 16.202 3.71297 16.3057C3.98752 16.4093 4.22285 16.5648 4.43204 16.785C4.64122 17.0053 4.73273 17.3032 4.73273 17.679C4.73273 18.0028 4.64122 18.3008 4.45818 18.5599C4.27515 18.819 4.0006 19.0393 3.63453 19.1947C3.28154 19.3891 2.83703 19.4668 2.31407 19.4668ZM11.4658 13.9089V19.3502H9.92305V17.2255H7.80509V19.3502H6.2493V13.9089H7.80509V15.9559H9.92305V13.9089H11.4658ZM15.4664 17.381L14.8911 17.9899V19.3502H13.3484V13.9089H14.8911V16.1761L17.0222 13.9089H18.7348L16.4861 16.3186L18.8525 19.3502H17.0483L15.4664 17.381ZM22.487 19.4668C21.6764 19.4668 21.0358 19.2466 20.5782 18.8061C20.1337 18.3656 19.8984 17.7437 19.8984 16.9275V13.9089H21.4542V16.8757C21.4542 17.7437 21.8072 18.1842 22.5001 18.1842C23.193 18.1842 23.5329 17.7437 23.5329 16.8757V13.9089H25.0626V16.9275C25.0626 17.7308 24.8403 18.3656 24.3827 18.8061C23.9382 19.2466 23.3107 19.4668 22.487 19.4668ZM26.906 13.9089H28.4618V18.1324H31.0765V19.3502H26.906V13.9089ZM36.8944 18.1583V19.3502H32.4885V13.9089H36.7898V15.1008H34.0182V16.0207H36.463V17.1737H34.0182V18.1713H36.8944V18.1583ZM44.0327 13.9089L41.6794 19.3502H40.1498L37.8096 13.9089H39.483L40.9734 17.4587L42.49 13.9089H44.0327Z" fill="#284CA6"/>
<path d="M54.7532 13.9088V19.3501H54.191V14.997L52.0338 18.6634H51.7723L49.6152 15.023V19.3501H49.053V13.9088H49.5367L51.9162 17.9379L54.2825 13.9088H54.7532ZM61.2117 18.8578V19.3501H57.3287V13.9088H61.094V14.4011H57.9171V16.3315H60.7541V16.8238H57.9171V18.8448H61.2117V18.8578ZM63.3688 13.9088H65.6045C66.1797 13.9088 66.7027 14.0254 67.1472 14.2586C67.5917 14.4918 67.9316 14.8027 68.18 15.2173C68.4284 15.6319 68.5461 16.0983 68.5461 16.6294C68.5461 17.1606 68.4284 17.627 68.18 18.0416C67.9316 18.4562 67.5917 18.7671 67.1472 19.0003C66.7027 19.2335 66.1928 19.3371 65.6045 19.3371H63.3688V13.9088ZM65.5653 18.8578C66.049 18.8578 66.4674 18.7671 66.8334 18.5728C67.1995 18.3784 67.474 18.1193 67.6701 17.7825C67.8662 17.4456 67.9708 17.057 67.9708 16.6294C67.9708 16.2019 67.8662 15.8132 67.6701 15.4764C67.474 15.1396 67.1864 14.8804 66.8334 14.6861C66.4674 14.4918 66.049 14.4011 65.5653 14.4011H63.9441V18.8448H65.5653V18.8578ZM70.6248 13.9088H71.2001V19.3501H70.6248V13.9088ZM77.2271 17.8991H74.1678L73.5142 19.3501H72.9128L75.4229 13.9088H75.9982L78.5084 19.3501H77.8939L77.2271 17.8991ZM77.0049 17.4327L75.6975 14.5047L74.377 17.4327H77.0049ZM88.2615 13.9088V19.3501H87.6862V16.8367H84.2478V19.3501H83.6725V13.9088H84.2478V16.3315H87.6862V13.9088H88.2615ZM93.2426 19.4019C92.6935 19.4019 92.2098 19.2853 91.7653 19.0392C91.3208 18.793 90.9808 18.4691 90.7324 18.0416C90.484 17.627 90.3664 17.1477 90.3664 16.6294C90.3664 16.1112 90.484 15.6319 90.7324 15.2173C90.9808 14.8027 91.3338 14.4659 91.7653 14.2327C92.2098 13.9865 92.7066 13.8699 93.2426 13.8699C93.7917 13.8699 94.2754 13.9865 94.7069 14.2327C95.1514 14.4659 95.4913 14.8027 95.7397 15.2302C95.9881 15.6448 96.1189 16.1242 96.1189 16.6424C96.1189 17.1606 95.9881 17.64 95.7397 18.0675C95.4913 18.4821 95.1383 18.8189 94.7069 19.0521C94.2754 19.2853 93.7917 19.4019 93.2426 19.4019ZM93.2426 18.8837C93.674 18.8837 94.0663 18.793 94.4193 18.5987C94.7722 18.4043 95.0468 18.1323 95.2429 17.7954C95.439 17.4456 95.5436 17.057 95.5436 16.6424C95.5436 16.2278 95.439 15.8392 95.2429 15.4894C95.0468 15.1396 94.7722 14.8675 94.4193 14.6861C94.0663 14.4918 93.674 14.3881 93.2426 14.3881C92.8112 14.3881 92.4189 14.4918 92.0529 14.6861C91.6999 14.8804 91.4253 15.1525 91.2162 15.4894C91.0201 15.8262 90.9155 16.2149 90.9155 16.6424C90.9155 17.0699 91.0201 17.4586 91.2162 17.7954C91.4253 18.1323 91.6999 18.4043 92.0529 18.5987C92.4189 18.793 92.8112 18.8837 93.2426 18.8837ZM98.2107 13.9088H98.7859V18.8578H101.858V19.3501H98.1976V13.9088H98.2107ZM103.61 13.9088H105.846C106.421 13.9088 106.944 14.0254 107.389 14.2586C107.833 14.4918 108.173 14.8027 108.421 15.2173C108.67 15.6319 108.787 16.0983 108.787 16.6294C108.787 17.1606 108.67 17.627 108.421 18.0416C108.173 18.4562 107.833 18.7671 107.389 19.0003C106.944 19.2335 106.434 19.3371 105.846 19.3371H103.61V13.9088ZM105.82 18.8578C106.303 18.8578 106.722 18.7671 107.088 18.5728C107.454 18.3784 107.728 18.1193 107.925 17.7825C108.121 17.4456 108.225 17.057 108.225 16.6294C108.225 16.2019 108.121 15.8132 107.925 15.4764C107.728 15.1396 107.441 14.8804 107.088 14.6861C106.722 14.4918 106.303 14.4011 105.82 14.4011H104.198V18.8448H105.82V18.8578ZM110.879 13.9088H111.454V19.3501H110.879V13.9088ZM118.619 13.9088V19.3501H118.135L114.605 14.9323V19.3501H114.03V13.9088H114.514L118.057 18.3266V13.9088H118.619ZM125.064 16.6294H125.627V18.7023C125.365 18.9226 125.064 19.091 124.711 19.2205C124.358 19.3501 123.992 19.4019 123.6 19.4019C123.051 19.4019 122.554 19.2853 122.123 19.0392C121.678 18.806 121.338 18.4691 121.09 18.0545C120.842 17.627 120.711 17.1606 120.711 16.6294C120.711 16.1112 120.842 15.6319 121.09 15.2173C121.338 14.7898 121.691 14.4659 122.123 14.2197C122.567 13.9865 123.064 13.857 123.613 13.857C124.032 13.857 124.411 13.9217 124.764 14.0643C125.117 14.1938 125.404 14.3881 125.653 14.6472L125.287 15.01C124.855 14.5825 124.306 14.3752 123.626 14.3752C123.182 14.3752 122.776 14.4788 122.423 14.6732C122.07 14.8675 121.783 15.1396 121.587 15.4764C121.378 15.8132 121.286 16.2019 121.286 16.6294C121.286 17.057 121.391 17.4327 121.587 17.7825C121.783 18.1323 122.07 18.3914 122.423 18.5857C122.776 18.78 123.182 18.8837 123.626 18.8837C124.188 18.8837 124.672 18.7412 125.064 18.4691V16.6294Z" fill="black"/>
<path fill-rule="evenodd" clip-rule="evenodd" d="M98.1584 0.5H130.908V32.5H98.1584V24.066H99.0736V31.5931H129.993V1.40688H99.0736V8.85628H98.1584V0.5Z" fill="#284CA6"/>
</g>
<defs>
<clipPath id="clip0_4002_18525">
<rect width="131" height="32" fill="white" transform="translate(0 0.5)"/>
</clipPath>
</defs>
</svg>
