<svg width="113" height="20" viewBox="0 0 113 20" fill="none" xmlns="http://www.w3.org/2000/svg">
<path d="M81.8474 13.0551L82.6475 16.9016C80.5868 19.2578 77.1922 15.1228 81.8474 13.0551ZM87.9133 17.9485C87.9133 17.9485 87.4753 17.8862 87.4641 17.8817C87.0846 17.8455 86.9805 17.0481 86.9805 17.0481C86.9805 17.0407 86.1744 12.2981 86.1744 12.2981C86.1744 12.3039 85.9838 11.3763 85.9838 11.3763C85.7875 10.3898 85.5838 9.3677 85.2046 8.4286C83.966 5.58165 80.4119 5.11335 77.7941 5.88216C77.3747 6.00857 76.9766 6.22224 76.9766 6.22224V7.98685C78.0531 7.52366 79.1031 7.49561 79.9529 7.89609C81.0582 8.4269 81.3699 9.7772 81.4272 10.3365C81.4272 10.346 81.5241 10.9616 81.5241 10.9616C80.2475 11.1523 78.6609 11.4649 77.4912 12.283C76.1841 13.2068 75.4962 14.6789 75.6488 16.2168C75.6964 17.8527 76.9729 19.1621 78.2058 19.6156C79.8445 20.1899 82.0936 20.0972 83.431 18.5705C83.4387 18.563 83.595 18.3901 83.595 18.3901L83.9734 18.7555C84.9491 19.7702 86.0181 19.7383 87.2567 19.7021L87.9141 19.689L87.9133 17.9485ZM56.0433 17.096C56.0433 17.096 54.6722 18.0933 52.5715 17.8021C50.6458 17.5349 50.0507 14.5443 50.0507 14.5443L57.4795 12.1646C57.4795 12.1646 57.3398 8.94668 55.5471 7.20001C53.9064 5.60138 51.4174 5.12567 49.1273 6.06177C47.7645 6.58506 46.5049 7.99035 45.9204 9.63977C44.7785 12.7799 45.4578 16.2932 47.6111 18.3804C49.5981 20.2672 52.6895 20.2318 54.9205 19.5688C54.9122 19.5708 56.0452 19.0891 56.0452 19.0891L56.0433 17.096ZM49.9493 12.5379C49.8314 11.1868 49.9996 9.74234 50.3277 9.07931C50.66 8.40576 51.0359 8.14642 51.4968 8.09103C53.4664 7.85422 53.6846 11.4363 53.6846 11.4363L49.9492 12.5461C49.9515 12.5485 49.9493 12.5357 49.9493 12.5379ZM111.563 17.096C111.563 17.096 110.192 18.0933 108.092 17.8021C106.167 17.5349 105.572 14.5443 105.572 14.5443L113 12.1646C113 12.1646 112.86 8.94668 111.067 7.20001C109.427 5.60138 106.938 5.12567 104.647 6.06177C103.286 6.58506 102.026 7.99035 101.441 9.63977C100.299 12.7799 100.978 16.2932 103.132 18.3804C105.119 20.2672 108.21 20.2318 110.441 19.5688C110.433 19.5708 111.565 19.0891 111.565 19.0891L111.563 17.096ZM105.47 12.5379C105.352 11.1868 105.52 9.74234 105.848 9.07931C106.181 8.40576 106.557 8.14642 107.017 8.09103C108.987 7.85422 109.205 11.4363 109.205 11.4363L105.47 12.5379C105.472 12.5403 105.47 12.5357 105.47 12.5379ZM25.3583 13.0712L26.1584 16.9177C24.0976 19.2737 20.7032 15.1386 25.3583 13.0712ZM31.4243 17.9646C31.4243 17.9646 30.9862 17.9021 30.9749 17.8975C30.5956 17.8614 30.4913 17.0641 30.4913 17.0641C30.4913 17.0566 29.6854 12.3141 29.6854 12.3141C29.6854 12.3197 29.4948 11.3923 29.4948 11.3923C29.2986 10.4057 29.0948 9.38373 28.7155 8.44463C27.4771 5.59757 23.923 5.12938 21.3054 5.89809C20.8856 6.0245 20.4879 6.23807 20.4879 6.23807V8.00287C21.5644 7.53969 22.6143 7.51154 23.464 7.91192C24.5693 8.44283 24.881 9.79313 24.9382 10.3525C24.9382 10.3619 25.0352 10.9774 25.0352 10.9774C23.7585 11.1683 22.1721 11.4807 21.0023 12.299C19.6952 13.2227 19.0074 14.6948 19.1598 16.2328C19.2074 17.8687 20.484 19.1781 21.7168 19.6316C23.3555 20.206 25.6045 20.1133 26.942 18.5866C26.9498 18.5791 27.1058 18.4062 27.1058 18.4062L27.4845 18.7715C28.4602 19.7862 29.5291 19.7543 30.7677 19.7181L31.425 19.705L31.4243 17.9646ZM93.4783 7.69184L93.4823 19.6947L97.7979 19.6928V12.0105L97.815 11.7236C97.8535 11.0908 97.8896 10.437 98.1888 9.88518C98.8344 8.64777 100.33 8.67412 101.376 8.80815L102.135 5.58355C102.135 5.58355 101.658 5.38511 100.961 5.38331C99.0294 5.38331 97.9757 7.6052 97.9637 7.63004L97.7807 8.05707L97.7795 5.36979L93.4783 7.69184ZM44.8096 5.39703L40.4379 7.71999V19.6881L44.8188 19.6863L44.8096 5.39703ZM44.9267 1.59555C44.7604 1.12866 44.4092 0.680092 43.9679 0.371766C42.9712 -0.224851 41.5391 -0.0538592 40.7716 0.75522C40.1912 1.29314 39.9135 2.19387 40.0627 3.05494C40.1805 3.85991 40.8449 4.50591 41.4086 4.76476C42.338 5.13378 43.7196 5.05866 44.5626 4.0267C45.0399 3.45953 45.1938 2.43578 44.9267 1.59335V1.59555ZM92.7943 5.38111L88.4225 7.70406V19.6722L92.8034 19.6704L92.7943 5.38111ZM92.9113 1.57963C92.745 1.11263 92.3939 0.664165 91.9526 0.355739C90.9557 -0.240778 89.5238 -0.0698865 88.7561 0.739293C88.1758 1.27721 87.8982 2.17805 88.0473 3.03901C88.1651 3.84399 88.8294 4.49009 89.3931 4.74893C90.3224 5.11776 91.7042 5.04263 92.547 4.01077C93.0245 3.4435 93.1782 2.41996 92.9112 1.57732L92.9113 1.57963ZM67.4542 17.3188C66.3055 16.7262 65.3448 15.8563 65.2218 13.3598C65.0786 10.4524 65.6615 8.40957 67.2275 7.81736C68.4156 7.36809 70.0467 8.35918 70.0467 8.35918L70.0629 6.00938C70.0629 6.00938 67.8263 4.93444 65.3164 5.7294C63.0498 6.44752 61.5891 8.19911 61.0713 11.0632C60.694 13.1497 60.9934 15.4541 62.0355 17.266C63.2362 19.227 65.512 20.2475 68.108 19.898C68.8141 19.8029 70.2857 19.3535 70.2857 19.3535L70.2652 17.182C70.2652 17.182 68.6383 17.9297 67.4542 17.3188ZM70.7991 19.6751H75.1051V1.10852L70.7991 3.39432V19.6751ZM31.9259 7.69204L31.9296 19.695L36.2454 19.693V12.0107L36.2626 11.7238C36.3007 11.091 36.3368 10.4372 36.6362 9.88538C37.2821 8.64797 38.7777 8.67422 39.8239 8.80835L40.5822 5.58355C40.5822 5.58355 40.1058 5.38521 39.4085 5.38341C37.4764 5.38341 36.4227 7.6053 36.4113 7.63014L36.2284 8.05717L36.2267 5.36999L31.9259 7.69204ZM0 7.6677V19.6973H4.23572L4.2443 10.6912C4.2443 9.98786 4.94824 9.3701 5.65257 9.39294C6.31266 9.41428 6.97618 10.032 6.97618 10.6912C6.97618 10.6912 6.9781 19.5234 6.9781 19.6877C7.1553 19.6877 11.2192 19.6877 11.3984 19.6877C11.3984 19.5234 11.3908 10.6912 11.3908 10.6912C11.3982 9.97954 12.1558 9.36129 12.8779 9.39294C13.5384 9.42179 14.1692 10.0403 14.1692 10.6912L14.1693 19.6837H18.6142L18.6066 9.26403C18.6066 8.83519 18.6066 8.21343 18.4903 7.71488C18.2674 6.82316 17.5034 6.05415 16.6324 5.8498C14.6185 5.35897 12.7853 6.12027 11.7261 7.88658L11.6268 8.05116L11.5564 7.87355C11.0286 6.56623 10.1941 5.84249 9.07555 5.72329C7.21399 5.4363 5.77723 6.1392 4.40725 8.00388L4.23572 8.23838C4.23572 8.23838 4.23572 5.80292 4.23572 5.52876C3.97851 5.65908 0 7.6677 0 7.6677Z" fill="black"/>
</svg>
