<svg width="107" height="20" viewBox="0 0 107 20" fill="none" xmlns="http://www.w3.org/2000/svg">
<path d="M36.8649 0.0501463C36.7722 0.0928927 36.608 0.306625 36.501 0.520357C36.4011 0.734089 34.8313 4.56701 33.0188 9.03401C31.2064 13.501 29.608 17.3838 29.4724 17.6688C29.3369 17.9466 29.1157 18.31 28.9801 18.4667C28.6875 18.8016 28.1238 19.0937 27.6315 19.1507C26.9036 19.2362 26.7752 19.3359 26.9893 19.6565L27.0963 19.8275H30.1004C32.0341 19.8275 33.1473 19.799 33.24 19.7562C33.3899 19.6707 33.4256 19.3715 33.29 19.2789C33.24 19.2504 32.9118 19.2077 32.5622 19.1792C31.9842 19.1435 31.9128 19.1293 31.763 18.944C31.5489 18.7018 31.5418 18.3955 31.7273 17.7258C31.9342 16.992 33.3542 13.33 33.4612 13.2588C33.5754 13.1875 39.1626 13.1875 39.2768 13.2588C39.3624 13.3158 41.3675 18.481 41.3675 18.652C41.3675 18.7018 41.3104 18.8087 41.2462 18.8942C41.1249 19.0367 41.025 19.0652 40.1116 19.229C39.9404 19.2575 39.8547 19.4143 39.9118 19.5781C39.9975 19.7919 40.4755 19.8275 43.7222 19.8275C46.5479 19.8275 46.9903 19.8132 47.1331 19.7135C47.2187 19.6565 47.29 19.5639 47.29 19.5069C47.29 19.3501 47.076 19.1863 46.869 19.1863C46.5337 19.1863 45.9628 18.9797 45.6774 18.7517C45.5275 18.6377 45.2778 18.367 45.128 18.1675C44.5286 17.3767 44.2003 16.6144 40.1901 6.71858C37.5714 0.256754 37.5143 0.135639 37.186 0.0145243C37.1004 -0.0139733 36.9648 0.000275514 36.8649 0.0501463ZM37.6142 8.63505L38.7773 11.7769H36.4011C35.0882 11.7769 34.0178 11.7484 34.0178 11.7199C34.0178 11.6843 34.4388 10.5586 34.9454 9.205C36.2869 5.67842 36.3868 5.42907 36.4225 5.46469C36.4368 5.47894 36.9791 6.90382 37.6142 8.63505ZM4.99021 0.192634C4.91172 0.292376 4.83323 0.47761 4.80469 0.605849C4.78328 0.734089 4.18389 4.60976 3.47747 9.21212C2.76391 13.8145 2.13597 17.7828 2.07175 18.0321C1.86482 18.8586 1.50091 19.1863 0.765939 19.1863C0.366345 19.1863 0.0523791 19.2931 0.00242989 19.4499C-0.0118413 19.4926 0.0381079 19.5995 0.116599 19.6779C0.266447 19.8275 0.330667 19.8275 3.23486 19.8275C5.14006 19.8275 6.24608 19.799 6.33884 19.7562C6.48155 19.6779 6.52437 19.3715 6.40306 19.2931C6.36025 19.2718 6.04628 19.2219 5.69664 19.1863C4.45504 19.058 4.21243 18.8301 4.28379 17.9039C4.35514 17.106 5.64669 7.35978 5.6895 7.35978C5.71091 7.35978 6.23894 8.44269 6.85974 9.76783C8.27972 12.7529 9.46423 15.1467 10.663 17.4052C11.9688 19.8702 12.0473 19.9771 12.4398 19.7206C12.6253 19.5995 13.5173 17.8326 17.1778 10.3022C18.7762 7.02493 18.7833 7.01068 18.8333 7.30991C18.8618 7.47377 19.2257 10.0599 19.6396 13.0593C20.1962 17.0632 20.3817 18.5736 20.3389 18.7588C20.2818 19.0224 20.2675 19.0224 19.2685 19.229C19.0759 19.2646 18.976 19.5639 19.1044 19.7206C19.1829 19.8132 19.661 19.8275 22.4867 19.8275C25.9831 19.8275 26.1116 19.8132 26.1544 19.4855C26.1829 19.3074 25.9546 19.1863 25.5978 19.1863C25.2482 19.1863 24.4633 18.9013 24.2135 18.6804C23.9495 18.4525 23.7854 18.1105 23.6355 17.4479C23.5784 17.2128 22.9862 13.3443 22.3154 8.8559C21.6447 4.36753 21.0667 0.591601 21.0239 0.463361C20.924 0.149888 20.7742 0.0216487 20.5315 0.0216487C20.3888 0.0216487 20.2747 0.0786439 20.1748 0.214007C20.0535 0.384993 19.0331 2.47957 14.0596 12.7601C13.4887 13.9427 13.0106 14.9045 13.0035 14.8974C12.9964 14.8831 11.4051 11.6558 9.4785 7.716C7.54476 3.77621 5.87503 0.441988 5.76799 0.306625C5.50398 -0.0210977 5.19714 -0.0638441 4.99021 0.192634ZM85.9436 0.100017C85.8793 0.135639 85.7794 0.256754 85.7224 0.370744C85.6653 0.47761 85.0231 4.4459 84.2881 9.18363C83.5603 13.9214 82.9181 17.9538 82.861 18.1532C82.7326 18.595 82.5328 18.9298 82.2973 19.0794C82.2045 19.1435 81.8977 19.2148 81.598 19.2362C81.0057 19.286 80.8273 19.3501 80.8273 19.5282C80.8273 19.8204 80.8773 19.8275 84.0027 19.8275C86.6 19.8275 87.0282 19.8132 87.1638 19.7135C87.5277 19.4641 87.3136 19.3003 86.5358 19.229C85.8365 19.172 85.4869 19.0723 85.28 18.8657C85.1301 18.7161 85.1087 18.6306 85.1087 18.139C85.1087 17.6759 86.4145 7.45952 86.4787 7.3954C86.493 7.38115 87.0139 8.44981 87.6418 9.76783C89.1118 12.8741 90.1322 14.9188 91.3809 17.2841C92.651 19.6992 92.7081 19.7919 93.0292 19.7919C93.2361 19.7919 93.3004 19.7491 93.4645 19.5069C93.5715 19.3501 94.9844 16.5004 96.6041 13.1804C98.2239 9.86044 99.5654 7.16742 99.594 7.19592C99.6511 7.26716 101.171 18.2815 101.164 18.6306C101.164 19.0295 101.021 19.1293 100.372 19.2219C99.9793 19.2718 99.7367 19.4855 99.858 19.6707C99.9222 19.7847 100.222 19.7919 103.276 19.8061C106.665 19.8275 106.915 19.8132 106.994 19.571C107.044 19.4214 106.794 19.2575 106.537 19.2575C106.237 19.2575 105.581 19.0794 105.217 18.8942C104.903 18.7303 104.646 18.3242 104.489 17.7258C104.425 17.4907 103.811 13.5366 103.126 8.93427C102.377 3.95432 101.827 0.491859 101.763 0.36362C101.706 0.249629 101.578 0.12139 101.478 0.0786439C101.335 0.00739991 101.271 0.0216487 101.114 0.142763C100.971 0.242505 100.001 2.18034 97.3819 7.59488C95.441 11.6202 93.8355 14.9116 93.8141 14.9116C93.7927 14.9045 92.1872 11.6629 90.2463 7.70175C88.0058 3.12789 86.6357 0.413491 86.493 0.256754C86.2575 0.00739992 86.1505 -0.0210977 85.9436 0.100017ZM47.6397 0.65572C47.497 0.769711 47.4827 0.812457 47.5541 0.962069C47.6183 1.11168 47.711 1.14018 48.2533 1.21855C48.6173 1.27554 49.0668 1.39666 49.3308 1.51777C50.1942 1.90961 50.4226 2.18747 53.3339 6.5476L56.0097 10.5515L55.8456 10.7937C54.5541 12.6603 50.6438 17.968 50.3155 18.3029C49.8589 18.7659 49.3023 19.0794 48.7528 19.1792C48.2533 19.2718 48.0892 19.4784 48.3318 19.7135C48.4246 19.8132 48.7885 19.8275 51.236 19.8275C53.655 19.8275 54.0617 19.8132 54.1973 19.7135C54.5469 19.4713 54.3186 19.2504 53.655 19.1792C52.9129 19.1008 52.7773 18.8229 53.1412 18.082C53.3624 17.6403 56.9588 12.183 57.0301 12.183C57.1514 12.183 61.0403 18.2245 61.1545 18.6021C61.2615 18.9369 61.1188 19.0438 60.498 19.115C60.2197 19.1435 59.9415 19.2077 59.8844 19.2575C59.7274 19.3858 59.7559 19.5852 59.9343 19.7135C60.077 19.8132 60.5622 19.8275 63.7947 19.8275C66.2065 19.8275 67.5409 19.799 67.6336 19.7562C67.8049 19.6636 67.812 19.3573 67.6479 19.2718C67.5765 19.2362 67.3054 19.1863 67.0485 19.1649C66.4634 19.115 65.8783 18.8942 65.4573 18.5736C64.9578 18.1889 64.7508 17.911 61.1402 12.6105C59.8273 10.6797 58.9425 9.31186 58.971 9.26199C59.1708 8.93427 64.0016 2.25871 64.2514 1.95949C64.6438 1.4964 64.9649 1.33254 65.6428 1.22567C66.3492 1.11881 66.4991 1.05469 66.4705 0.862328C66.4277 0.534605 66.285 0.520357 63.2524 0.534605C60.5337 0.555979 60.4053 0.563103 60.3054 0.691342C60.2483 0.769711 60.2055 0.855203 60.2055 0.883701C60.2055 1.04044 60.4552 1.1473 60.919 1.18293C61.2045 1.2043 61.5113 1.27554 61.604 1.33966C61.8609 1.50352 61.8324 1.89537 61.5327 2.47244C61.2116 3.08514 58.0577 7.73025 57.9292 7.77299C57.865 7.79437 55.4389 4.13243 54.6183 2.77879C54.0689 1.87399 53.9404 1.56052 54.0689 1.41091C54.1759 1.28267 54.5898 1.16155 54.9251 1.16155C55.2177 1.16155 55.3533 1.05469 55.3533 0.83383C55.3533 0.54173 55.1107 0.520357 51.3573 0.520357C47.9822 0.520357 47.7967 0.527481 47.6397 0.65572ZM69.8457 0.584476C69.5816 0.65572 69.496 0.840955 69.6459 1.00482C69.7386 1.11168 69.9099 1.15443 70.3452 1.18293C71.3798 1.26129 71.651 1.51777 71.7651 2.52231C71.8579 3.32025 71.8579 15.8734 71.7651 17.1416C71.6438 18.8372 71.5154 19.0652 70.6449 19.1507C69.8028 19.2219 69.7101 19.2504 69.653 19.4143C69.6173 19.5283 69.653 19.6066 69.7672 19.6992C69.917 19.8204 70.1668 19.8275 73.8273 19.8275C77.2381 19.8275 77.7448 19.8132 77.8875 19.7135C78.0944 19.571 78.0873 19.343 77.8875 19.2646C77.7947 19.2362 77.4023 19.1863 77.0098 19.1649C76.1678 19.1079 75.8681 19.0295 75.6398 18.8158C75.3972 18.5878 75.3329 18.2815 75.2616 16.9065C75.1759 15.3177 75.1759 3.97569 75.2616 2.81441C75.3543 1.51065 75.5541 1.27554 76.6459 1.18293C77.2167 1.14018 77.4308 1.03331 77.388 0.819581C77.3309 0.534605 77.1454 0.520357 73.5134 0.527481C71.5939 0.534605 69.9384 0.555979 69.8457 0.584476Z" fill="black"/>
</svg>
