<svg width="74" height="20" viewBox="0 0 74 20" fill="none" xmlns="http://www.w3.org/2000/svg">
<path d="M15.2425 10.991L15.2654 8.53581C15.2654 5.32341 13.863 3.96961 11.748 3.96961C9.7708 3.96961 8.52934 5.39225 7.81664 6.88372C7.40282 4.84155 6.16135 3.96961 4.46008 3.96961C2.39097 3.96961 1.14951 5.50698 0.436812 7.06729L0.459803 4.33674C0.459803 4.29085 0.436812 4.26791 0.390832 4.26791H0.0689704C0.0229902 4.26791 0 4.29085 0 4.33674L0.0459803 11.014L0 15.9932C0 16.0391 0.0229902 16.062 0.0689704 16.062H0.390832C0.436812 16.062 0.459803 16.0391 0.459803 15.9932L0.436812 10.991V7.80155C1.35642 5.73643 2.52891 4.35969 4.4141 4.35969C6.2763 4.35969 7.54076 5.48403 7.54076 8.60465V10.991L7.51777 15.9932C7.51777 16.0391 7.54076 16.062 7.58674 16.062H7.9086C7.95458 16.062 7.97757 16.0391 7.97757 15.9932L7.95458 10.991L7.97757 8.53581C7.97757 8.14573 7.95458 7.7786 7.9086 7.43442C8.80522 5.57581 9.90874 4.38264 11.702 4.38264C13.5642 4.38264 14.8286 5.50698 14.8286 8.60465V11.014L14.8056 15.9932C14.8056 16.0391 14.8286 16.062 14.8746 16.062H15.1965C15.2425 16.062 15.2654 16.0391 15.2654 15.9932L15.2425 10.991Z" fill="black"/>
<path d="M18.8708 19.9628H19.1466C19.1926 19.9628 19.2156 19.9628 19.2386 19.9169L24.6873 4.33674C24.7103 4.29085 24.6873 4.24496 24.6183 4.24496H24.2964C24.2505 4.24496 24.2275 4.26791 24.2045 4.29085L20.3881 15.3966L16.089 4.29085C16.066 4.26791 16.043 4.24496 15.997 4.24496H15.6751C15.6062 4.24496 15.6062 4.29085 15.6062 4.33674L20.2042 16.0391L18.8248 19.894C18.8018 19.9398 18.8248 19.9628 18.8708 19.9628Z" fill="black"/>
<path d="M26.0115 10.0502C26.0115 7.18201 27.184 4.8645 29.8509 4.8645C32.2419 4.8645 33.6442 6.90667 33.6213 10.2797C33.5983 13.6757 32.1039 15.3966 29.8049 15.3966C27.184 15.3966 26.0115 13.0102 26.0115 10.0502ZM34.5639 16.062C34.6328 16.062 34.6788 16.0161 34.6788 15.9473L34.6328 6.44775L34.6788 0.114729C34.6788 0.0458924 34.6328 0 34.5639 0H33.6213C33.5523 0 33.5063 0.0458924 33.5063 0.114729L33.5293 6.4707C32.7706 4.8645 31.4142 3.99256 29.598 3.99256C26.5403 3.99256 24.862 6.76899 24.862 10.165C24.862 13.6068 26.5173 16.2915 29.598 16.2915C31.4832 16.2915 32.8396 15.3048 33.5753 13.6986L33.5293 15.9473C33.5293 16.0161 33.5753 16.062 33.6442 16.062H34.5639Z" fill="black"/>
<path d="M44.723 11.8859C44.654 11.8859 44.608 11.9318 44.585 12.0006C44.2172 14.1346 43.0217 15.4195 40.8606 15.4195C38.0558 15.4195 36.6305 13.4691 36.6305 10.142L45.6656 10.1191C45.7345 10.1191 45.7805 10.0732 45.7805 10.0043C45.7345 6.19535 43.8493 3.99256 40.6997 3.99256C37.5271 3.99256 35.5039 6.56248 35.5039 10.1879C35.5039 13.8133 37.3431 16.3144 40.8376 16.3144C43.6884 16.3144 45.2977 14.6394 45.7116 12.0006C45.7345 11.9318 45.6886 11.8859 45.6196 11.8859H44.723ZM44.562 9.20124H36.6764C36.9523 6.56248 38.3547 4.88744 40.6997 4.88744C43.2286 4.88744 44.5391 6.81488 44.562 9.20124Z" fill="black"/>
<path d="M56.3294 11.8171C56.3294 11.7482 56.2834 11.7023 56.2144 11.7023H55.3638C55.2948 11.7023 55.2489 11.7482 55.2489 11.8171C55.042 13.9969 53.7545 15.4195 51.3865 15.4195C48.6277 15.3966 47.3403 13.4003 47.3403 10.1879C47.3403 6.9755 48.6507 4.91039 51.4095 4.91039C53.5706 4.91039 54.812 6.12651 55.0879 8.14573C55.1109 8.21457 55.1569 8.26046 55.2259 8.26046H56.0765C56.1455 8.26046 56.1915 8.19163 56.1915 8.14573C55.9616 5.6676 54.2603 3.99256 51.4095 3.99256C47.984 3.99256 46.1908 6.49364 46.1908 10.1879C46.1908 13.8822 47.984 16.3144 51.3635 16.3144C54.4212 16.3144 56.1225 14.4099 56.3294 11.8171Z" fill="black"/>
<path d="M67.229 10.165C67.229 6.4707 65.3439 3.99256 61.9413 3.99256C58.5158 3.99256 56.6536 6.4707 56.6536 10.165C56.6536 13.8592 58.5158 16.3144 61.9413 16.3144C65.3439 16.3144 67.229 13.8363 67.229 10.165ZM57.8031 10.165C57.8031 6.95256 59.1825 4.91039 61.9413 4.88744C64.6771 4.88744 66.0565 6.9755 66.0565 10.165C66.0565 13.3774 64.7001 15.4195 61.9413 15.4195C59.2055 15.4195 57.8031 13.3774 57.8031 10.165Z" fill="black"/>
<path d="M69.1031 16.062C69.1721 16.062 69.2181 16.0161 69.2181 15.9473L69.1721 8.90294C69.4709 6.28713 71.2872 5.09395 73.0344 5.09395C73.3793 5.09395 73.6551 5.13984 73.885 5.20868C73.954 5.20868 74 5.16279 74 5.1169V4.35969C74 4.29085 73.954 4.22202 73.885 4.19907C73.6551 4.13023 73.3333 4.10729 73.0114 4.10729C71.4021 4.10729 69.9307 5.00217 69.1261 6.51659L69.2181 4.35969C69.2181 4.29085 69.1721 4.24496 69.1031 4.24496H68.1605C68.0915 4.24496 68.0456 4.29085 68.0456 4.35969L68.0915 9.95845L68.0456 15.9473C68.0456 16.0161 68.0915 16.062 68.1605 16.062H69.1031Z" fill="black"/>
</svg>
