<svg width="98" height="20" viewBox="0 0 98 20" fill="none" xmlns="http://www.w3.org/2000/svg">
<path d="M0.0689697 19.6436L0.0689697 0.48218H6.93985C7.90345 0.48218 8.75882 0.583508 9.50596 0.786163C10.2531 0.988817 10.878 1.28581 11.3808 1.67715C11.8835 2.08246 12.2606 2.57862 12.512 3.16562C12.7633 3.75262 12.889 4.43746 12.889 5.22013C12.889 5.8211 12.8402 6.36967 12.7424 6.86583C12.6446 7.36198 12.491 7.81272 12.2815 8.21803C12.0721 8.60936 11.8207 8.96226 11.5274 9.27673C11.2342 9.5912 10.892 9.85325 10.501 10.0629C10.1239 10.2865 9.71195 10.4752 9.26506 10.6289C8.81818 10.7827 8.33637 10.9015 7.81966 10.9853C7.55432 11.0273 7.282 11.0657 7.0027 11.1006C6.72339 11.1356 6.43711 11.16 6.14384 11.174C5.85057 11.202 5.54682 11.2229 5.23261 11.2369C4.91839 11.2509 4.58672 11.2579 4.23759 11.2579L4.23759 19.6436C3.53932 19.5318 2.84456 19.4759 2.15328 19.4759C1.462 19.4759 0.76723 19.5318 0.0689697 19.6436ZM4.23759 9.7065C4.44706 9.7065 4.64258 9.70301 4.82412 9.69602C5.00567 9.68903 5.16627 9.67855 5.30592 9.66457C5.44558 9.65059 5.58174 9.62963 5.71441 9.60168C5.84708 9.57372 5.96927 9.54577 6.08099 9.51782C6.51391 9.40601 6.88748 9.2348 7.2017 9.00419C7.51592 8.77359 7.77078 8.48358 7.9663 8.13417C8.16181 7.79874 8.30844 7.42837 8.4062 7.02306C8.50396 6.61775 8.55284 6.1775 8.55284 5.70231C8.55284 5.15723 8.49348 4.66108 8.37478 4.21384C8.25607 3.7666 8.07104 3.37526 7.81966 3.03983C7.58225 2.69043 7.30644 2.43187 6.99222 2.26415C6.67801 2.09644 6.33935 2.01258 5.97625 2.01258H4.23759L4.23759 9.7065ZM13.1195 13.8155L12.4282 15.7652L11.6741 17.9245L11.1713 19.5807C10.7244 19.5108 10.2845 19.4759 9.8516 19.4759C9.41868 19.4759 8.97878 19.5108 8.53189 19.5807L16.4921 0.251572C16.8552 0.307476 17.2113 0.33543 17.5604 0.33543C17.9095 0.33543 18.2587 0.307476 18.6078 0.251572L26.4004 19.6436H26.3794C25.5694 19.5318 24.7734 19.4759 23.9914 19.4759C23.2093 19.4759 22.4133 19.5318 21.6033 19.6436C21.1844 18.3159 20.8108 17.1663 20.4826 16.195C20.1544 15.2236 19.8647 14.4305 19.6133 13.8155L13.1195 13.8155ZM18.9848 12.0964L16.4921 5.59748L13.8736 12.0964L18.9848 12.0964ZM27.2383 0.48218H33.1875C34.2907 0.48218 35.2194 0.531097 35.9735 0.628931C36.7276 0.726765 37.3072 0.866528 37.7122 1.04822C38.5222 1.4675 39.1262 2.01258 39.5242 2.68344C39.9222 3.3543 40.1212 4.14395 40.1212 5.05241C40.1212 5.70929 40.0269 6.31377 39.8384 6.86583C39.6499 7.41789 39.3601 7.91055 38.9691 8.34382C38.578 8.7631 38.1172 9.1195 37.5865 9.413C37.0558 9.7065 36.4553 9.92313 35.785 10.0629L37.1885 12.4319L39.0319 15.3249L40.7077 17.9036L41.797 19.6436C40.9731 19.5318 40.1596 19.4759 39.3566 19.4759C38.5536 19.4759 37.7401 19.5318 36.9162 19.6436H36.8324H36.7486L33.4388 13.7736L32.5171 12.2013L31.6164 10.6918H31.4279V19.6436C30.7156 19.5318 30.0174 19.4759 29.3331 19.4759C28.6488 19.4759 27.9505 19.5318 27.2383 19.6436L27.2383 0.503145V0.48218ZM31.4279 9.47589L32.1191 9.51782C33.3481 9.51782 34.2698 9.18239 34.8842 8.51153C35.4987 7.84067 35.8059 6.83438 35.8059 5.49266C35.8059 5.39483 35.8025 5.29001 35.7955 5.1782C35.7885 5.06639 35.778 4.94759 35.764 4.8218C35.7501 4.69602 35.7361 4.57372 35.7222 4.45493C35.7082 4.33613 35.6872 4.21384 35.6593 4.08805C35.5895 3.65479 35.4638 3.29839 35.2822 3.01887C35.1007 2.73934 34.8633 2.5297 34.57 2.38994C34.2768 2.26415 33.9381 2.16981 33.5541 2.10692C33.17 2.04403 32.7406 2.01258 32.2658 2.01258H31.4279L31.4279 9.47589ZM53.1926 2.89308C52.229 2.7673 51.2096 2.67296 50.1343 2.61006C49.0589 2.54717 47.9277 2.51572 46.7407 2.51572V8.30189H49.6525C50.1971 8.30189 50.7557 8.28092 51.3283 8.23899C51.9009 8.19707 52.4804 8.13417 53.0669 8.05031C53.0111 8.45563 52.9832 8.92383 52.9832 9.45493C52.9832 9.98602 53.0041 10.4542 53.046 10.8595C52.7527 10.8176 52.463 10.7792 52.1767 10.7442C51.8904 10.7093 51.6006 10.6848 51.3073 10.6709C51.028 10.6429 50.7487 10.6254 50.4694 10.6184C50.1901 10.6115 49.9178 10.608 49.6525 10.608H46.7407V17.4843C47.3971 17.4843 48.008 17.4773 48.5736 17.4633C49.1392 17.4493 49.6734 17.4284 50.1761 17.4004C50.6649 17.3725 51.1607 17.334 51.6634 17.2851C52.1662 17.2362 52.6689 17.1768 53.1717 17.1069C53.1298 17.5122 53.1054 17.9106 53.0984 18.3019C53.0914 18.6932 53.1228 19.0915 53.1926 19.4969L42.5721 19.4969V0.48218L53.1717 0.48218C53.1158 0.887489 53.0879 1.28931 53.0879 1.68763C53.0879 2.08595 53.1228 2.48777 53.1926 2.89308ZM56.649 0.503145L59.4141 3.45912L62.4935 6.77149L65.7613 10.2935C65.887 10.4333 66.0302 10.5905 66.1908 10.7652C66.3514 10.9399 66.5294 11.1391 66.7249 11.3627C67.0042 11.6562 67.2277 11.8938 67.3953 12.0755C67.5628 12.2572 67.6676 12.3829 67.7095 12.4528C67.919 12.6764 68.104 12.8826 68.2646 13.0713C68.4252 13.26 68.5683 13.4242 68.694 13.5639V0.503145L69.2387 0.545073C69.2387 0.545073 69.4272 0.552061 69.8043 0.566038C69.9858 0.566038 70.1708 0.55905 70.3594 0.545073C70.5479 0.531096 70.7399 0.517122 70.9354 0.503145V19.6436C70.5304 19.5877 70.1359 19.5563 69.7519 19.5493C69.3678 19.5423 68.9803 19.5667 68.5893 19.6226H68.5474L65.1119 15.7652L62.0536 12.3899C61.8441 12.1663 61.6206 11.9252 61.3832 11.6667C61.1458 11.4081 60.8875 11.1251 60.6082 10.8176C60.4126 10.608 60.1927 10.3739 59.9483 10.1153C59.7039 9.85674 59.4351 9.57372 59.1418 9.26625L56.1044 6.07966V19.5597C55.7273 19.5038 55.3572 19.4759 54.9941 19.4759C54.6311 19.4759 54.261 19.4969 53.8839 19.5388V0.503145C54.3448 0.55905 54.8056 0.583508 55.2665 0.576519C55.7273 0.56953 56.1882 0.545074 56.649 0.503145ZM76.9265 19.6436V2.47379C76.1864 2.47379 75.3834 2.50524 74.5175 2.56813C73.6517 2.63103 72.73 2.73236 71.7524 2.87212C71.8083 2.46681 71.8362 2.06848 71.8362 1.67715C71.8362 1.28581 71.8083 0.887489 71.7524 0.48218L86.1017 0.48218C86.0458 0.887489 86.0179 1.28581 86.0179 1.67715C86.0179 2.06848 86.0458 2.46681 86.1017 2.87212C84.9844 2.73236 84.0104 2.63103 83.1794 2.56813C82.3485 2.50524 81.6607 2.47379 81.1161 2.47379V19.6436C80.4038 19.5318 79.7056 19.4759 79.0213 19.4759C78.337 19.4759 77.6387 19.5318 76.9265 19.6436ZM95.7795 4.08805C95.4723 3.27743 95.0499 2.66946 94.5122 2.26415C93.9745 1.85884 93.3287 1.65619 92.5745 1.65619C91.5551 1.65619 90.7905 1.88679 90.2807 2.34801C89.771 2.80923 89.5161 3.49406 89.5161 4.40251C89.5161 4.80783 89.5825 5.16073 89.7151 5.46122C89.8478 5.76171 90.0538 6.00978 90.3331 6.20545C90.5845 6.38714 90.9685 6.62474 91.4852 6.91824C92.002 7.21174 92.6444 7.55416 93.4124 7.94549C94.1805 8.3508 94.8543 8.7631 95.4339 9.18239C96.0135 9.60168 96.4918 10.021 96.8688 10.4403C97.2459 10.8735 97.5287 11.3732 97.7172 11.9392C97.9057 12.5052 98 13.1447 98 13.8574C98 14.4444 97.9197 15.0035 97.7591 15.5346C97.5985 16.0657 97.3646 16.5618 97.0574 17.0231C96.7501 17.4983 96.3766 17.9175 95.9367 18.2809C95.4967 18.6443 94.9905 18.9588 94.4179 19.2243C93.8593 19.4899 93.2588 19.6855 92.6164 19.8113C91.974 19.9371 91.3037 20 90.6054 20C89.7396 20 88.9296 19.9022 88.1755 19.7065C87.4214 19.5108 86.7301 19.2103 86.1017 18.805C86.3111 18.0922 86.4822 17.4389 86.6149 16.8449C86.7475 16.2509 86.8488 15.7233 86.9186 15.2621H87.4423C87.554 15.7233 87.7216 16.1426 87.9451 16.5199C88.1685 16.8973 88.4548 17.2257 88.8039 17.5052C89.1531 17.7848 89.5371 17.9944 89.9561 18.1342C90.375 18.2739 90.8219 18.3438 91.2967 18.3438C91.7436 18.3438 92.1626 18.2774 92.5536 18.1447C92.9446 18.0119 93.3007 17.8197 93.6219 17.5681C93.9292 17.3166 94.1631 17.0126 94.3237 16.6562C94.4843 16.2998 94.5646 15.891 94.5646 15.4298C94.5646 14.9406 94.4913 14.5178 94.3446 14.1614C94.198 13.805 93.978 13.515 93.6848 13.2914C93.3915 13.0678 92.99 12.8162 92.4803 12.5367C91.9705 12.2572 91.3526 11.9427 90.6264 11.5933C89.8862 11.2439 89.2438 10.8805 88.6992 10.5031C88.1545 10.1258 87.7007 9.74144 87.3376 9.3501C86.9745 8.94479 86.7022 8.44864 86.5206 7.86163C86.3391 7.27463 86.2483 6.60377 86.2483 5.84906C86.2483 5.44375 86.2832 5.05241 86.353 4.67505C86.4229 4.29769 86.5276 3.92732 86.6672 3.56394C86.7929 3.21453 86.9605 2.8826 87.17 2.56813C87.3795 2.25367 87.6239 1.96366 87.9032 1.69811C88.1685 1.43256 88.4722 1.19497 88.8144 0.985325C89.1565 0.775681 89.5301 0.59399 89.9351 0.440252C90.3541 0.286512 90.7905 0.174704 91.2443 0.104822C91.6982 0.0349407 92.1835 0 92.7002 0C93.175 0 93.6324 0.0314465 94.0723 0.0943394C94.5122 0.157232 94.9347 0.25856 95.3396 0.398323C95.7446 0.538084 96.0938 0.684834 96.387 0.838573C96.6803 0.992311 96.9177 1.16003 97.0993 1.34172C97.0574 1.4116 97.0155 1.51642 96.9736 1.65619C96.9317 1.79595 96.8758 1.97065 96.806 2.18029C96.6943 2.5297 96.5895 2.86163 96.4918 3.1761C96.394 3.49056 96.2963 3.79455 96.1985 4.08805H95.7795Z" fill="#F13F35"/>
</svg>
