<svg width="110" height="20" viewBox="0 0 110 20" fill="none" xmlns="http://www.w3.org/2000/svg">
<path d="M32.4366 10.1461C32.4366 8.32847 32.4919 6.82246 32.6023 5.62805C32.7128 4.43363 32.8785 3.48588 33.0994 2.78481C33.3203 2.08374 33.603 1.59039 33.9474 1.30477C34.2917 1.01915 34.7044 0.876341 35.1852 0.876341C35.666 0.876341 36.0851 1.00617 36.4425 1.26583C36.7999 1.52548 37.0988 1.90847 37.3392 2.4148C37.5796 2.92113 37.7583 3.5508 37.8752 4.3038C37.9922 5.0568 38.0507 5.93963 38.0507 6.95229H38.8304C38.8434 5.73191 38.7719 4.68679 38.616 3.81694C38.46 2.9471 38.2196 2.2298 37.8947 1.66504C37.5699 1.10029 37.154 0.684845 36.6472 0.418697C36.1404 0.15255 35.5426 0.0194759 34.8538 0.0194759C34.0481 0.0194759 33.3301 0.246675 32.6998 0.701073C32.0695 1.15547 31.5335 1.81435 31.0916 2.6777C30.6498 3.54106 30.3119 4.59916 30.078 5.852C29.8441 7.10484 29.7271 8.53619 29.7271 10.1461C29.7271 11.8338 29.8506 13.2911 30.0975 14.518C30.3444 15.7449 30.6953 16.764 31.1501 17.5755C31.6049 18.3869 32.1507 18.9873 32.7875 19.3768C33.4243 19.7663 34.1326 19.9611 34.9123 19.9611C35.588 19.9611 36.1858 19.815 36.7057 19.5229C37.2255 19.2308 37.6576 18.7829 38.0019 18.1792C38.3463 17.5755 38.6062 16.803 38.7817 15.8617C38.9571 14.9205 39.0448 13.8007 39.0448 12.5024H38.2651C38.2651 13.606 38.1969 14.5699 38.0604 15.3944C37.924 16.2188 37.7225 16.9068 37.4561 17.4586C37.1897 18.0104 36.8681 18.4226 36.4912 18.6952C36.1144 18.9679 35.679 19.1042 35.1852 19.1042C34.7693 19.1042 34.3925 18.9873 34.0546 18.7537C33.7167 18.52 33.4276 18.0785 33.1871 17.4294C32.9467 16.7803 32.7583 15.8715 32.6218 14.703C32.4854 13.5346 32.4172 12.0156 32.4172 10.1461H32.4366ZM48.1092 19.8247H48.8889V0.155796H48.1092V8.80234H42.9435V0.155796H40.3509V19.8247H42.9435V9.54236H48.1092V19.8247ZM72.4561 19.9611C73.1709 19.9611 73.8109 19.7728 74.3762 19.3963C74.9415 19.0198 75.4191 18.4323 75.809 17.6339C76.1988 16.8354 76.501 15.8066 76.7154 14.5472C76.9298 13.2879 77.037 11.7754 77.037 10.0097C77.037 8.29601 76.9461 6.80948 76.7641 5.55015C76.5822 4.29082 76.3028 3.25219 75.9259 2.43428C75.5491 1.61636 75.0715 1.00941 74.4932 0.61344C73.9149 0.217464 73.2294 0.0194759 72.4366 0.0194759C71.6959 0.0194759 71.0201 0.243429 70.4094 0.691336C69.7986 1.13924 69.2788 1.78838 68.8499 2.63876C68.4211 3.48913 68.0864 4.53424 67.846 5.7741C67.6056 7.01396 67.4854 8.42584 67.4854 10.0097C67.4854 11.7105 67.6121 13.184 67.8655 14.4304C68.1189 15.6767 68.4698 16.7121 68.9181 17.5365C69.3665 18.3609 69.896 18.9711 70.5068 19.3671C71.1176 19.7631 71.7739 19.9611 72.4756 19.9611H72.4561ZM55.4386 19.9611C56.1404 19.9611 56.7739 19.7728 57.3392 19.3963C57.9045 19.0198 58.3853 18.4323 58.7817 17.6339C59.178 16.8354 59.4834 15.8066 59.6979 14.5472C59.9123 13.2879 60.0195 11.7754 60.0195 10.0097C60.0195 8.29601 59.9285 6.80948 59.7466 5.55015C59.5647 4.29082 59.282 3.25219 58.8986 2.43428C58.5153 1.61636 58.0344 1.00941 57.4561 0.61344C56.8778 0.217464 56.1988 0.0194759 55.4191 0.0194759C54.6654 0.0194759 53.9799 0.240185 53.3626 0.681599C52.7453 1.12301 52.219 1.76891 51.7836 2.61928C51.3483 3.46966 51.0136 4.51802 50.7797 5.76436C50.5458 7.01071 50.4288 8.42584 50.4288 10.0097C50.4288 11.7105 50.5556 13.184 50.809 14.4304C51.0624 15.6767 51.41 16.7121 51.8519 17.5365C52.2937 18.3609 52.82 18.9711 53.4308 19.3671C54.0416 19.7631 54.7044 19.9611 55.4191 19.9611H55.4386ZM61.6764 19.8247H68.0117V19.0847H64.2885V0.17527H61.6764V19.8247ZM95.0487 19.8247H101.365V19.0847L97.6218 19.0847V9.07498H100.975V8.33496H97.6218V0.876341H101.209V0.155796H95.0682V19.8247H95.0487ZM90.3119 19.8247H92.9045V0.155796H90.3509V19.8247H90.3119ZM26.7251 19.8247V12.2103L29.8246 0.155796H28.9864L26.2768 10.8861L23.4698 0.155796H20.7992L24.152 12.2103V19.8247H26.7446H26.7251ZM5.96491 11.5093C6.90059 11.5093 7.70955 11.3729 8.39181 11.1003C9.07407 10.8277 9.64263 10.4447 10.0975 9.95132C10.5523 9.45797 10.8934 8.86076 11.1209 8.15969C11.3483 7.45862 11.462 6.67316 11.462 5.80331C11.462 4.94645 11.3483 4.17073 11.1209 3.47615C10.8934 2.78157 10.5523 2.1876 10.0975 1.69426C9.64263 1.20091 9.07407 0.821163 8.39181 0.555016C7.70955 0.288868 6.90059 0.155796 5.96491 0.155796H3.07992L3.07992 19.8247H5.65302L5.65302 11.5093H5.96491ZM76.2573 9.97079C76.2573 11.5547 76.1696 12.9211 75.9942 14.0701C75.8187 15.2191 75.5718 16.1636 75.2534 16.9036C74.935 17.6436 74.5647 18.1921 74.1423 18.5492C73.72 18.9062 73.2619 19.0847 72.768 19.0847C72.4561 19.0847 72.1443 18.9646 71.8324 18.7244C71.5205 18.4843 71.2443 18.0331 71.0039 17.371C70.7635 16.7089 70.5686 15.7871 70.4191 14.6056C70.2697 13.4242 70.1949 11.8922 70.1949 10.0097C70.1949 8.02337 70.2599 6.43298 70.3899 5.23856C70.5198 4.04414 70.7018 3.12236 70.9357 2.47322C71.1696 1.82409 71.4425 1.39565 71.7544 1.18793C72.0663 0.980204 72.4042 0.876341 72.768 0.876341C73.3008 0.876341 73.7817 1.05485 74.2105 1.41188C74.6394 1.76891 75.0065 2.31743 75.3119 3.05745C75.6173 3.79747 75.8512 4.74197 76.0136 5.89095C76.1761 7.03992 76.2573 8.39987 76.2573 9.97079ZM59.2203 9.97079C59.2203 11.5547 59.1293 12.9211 58.9474 14.0701C58.7654 15.2191 58.5185 16.1636 58.2066 16.9036C57.8947 17.6436 57.5276 18.1921 57.1053 18.5492C56.6829 18.9062 56.2248 19.0847 55.731 19.0847C55.4191 19.0847 55.1072 18.9646 54.7953 18.7244C54.4834 18.4843 54.2073 18.0331 53.9669 17.371C53.7264 16.7089 53.5283 15.7871 53.3723 14.6056C53.2164 13.4242 53.1384 11.8922 53.1384 10.0097C53.1384 8.02337 53.2066 6.43298 53.3431 5.23856C53.4795 4.04414 53.6615 3.12236 53.8889 2.47322C54.1163 1.82409 54.3892 1.39565 54.7076 1.18793C55.026 0.980204 55.3671 0.876341 55.731 0.876341C56.2638 0.876341 56.7446 1.05485 57.1735 1.41188C57.6023 1.76891 57.9695 2.31743 58.2749 3.05745C58.5802 3.79747 58.8142 4.74197 58.9766 5.89095C59.1391 7.03992 59.2203 8.39987 59.2203 9.97079ZM6.02339 0.915289C6.80312 0.915289 7.48213 1.02564 8.06043 1.24635C8.63873 1.46706 9.11956 1.79163 9.50292 2.22006C9.88629 2.64849 10.1689 3.16456 10.3509 3.76826C10.5328 4.37196 10.6238 5.0568 10.6238 5.82279C10.6238 6.57579 10.5296 7.25739 10.3411 7.86758C10.1527 8.47777 9.8668 8.99708 9.48343 9.42551C9.10007 9.85394 8.61923 10.1818 8.04094 10.409C7.46264 10.6362 6.79012 10.7498 6.02339 10.7498H5.65302L5.65302 0.915289H6.02339ZM14.9123 3.46641C14.9123 2.63551 15.0812 2.0026 15.4191 1.56767C15.757 1.13275 16.2313 0.915289 16.8421 0.915289C17.7648 0.915289 18.4503 1.3567 18.8986 2.23953C19.347 3.12236 19.5712 4.43363 19.5712 6.17332H20.3509C20.3639 5.10873 20.2956 4.1902 20.1462 3.41772C19.9968 2.64525 19.7628 2.00909 19.4444 1.50925C19.1261 1.00941 18.7199 0.639406 18.2261 0.399223C17.7323 0.159042 17.141 0.03895 16.4522 0.03895C15.8804 0.03895 15.3574 0.139568 14.883 0.340801C14.4087 0.542034 13.9994 0.8309 13.655 1.2074C13.3106 1.5839 13.0442 2.04155 12.8558 2.58033C12.6673 3.11912 12.5731 3.72606 12.5731 4.40117C12.5731 5.72542 12.8687 6.83545 13.46 7.73126C14.0513 8.62707 14.7044 9.48718 15.4191 10.3116C16.1339 11.136 16.7869 12.0058 17.3782 12.9211C17.9695 13.8364 18.2651 14.9757 18.2651 16.3389C18.2651 17.2736 17.9987 17.9714 17.4659 18.4323C16.9331 18.8932 16.3808 19.1237 15.809 19.1237C15.2891 19.1237 14.8181 19.0198 14.3957 18.8121C13.9734 18.6043 13.6127 18.2798 13.3138 17.8384C13.0149 17.3969 12.781 16.8257 12.6121 16.1246C12.4431 15.4236 12.3587 14.5797 12.3587 13.593H11.5789C11.5789 14.6965 11.6764 15.654 11.8713 16.4654C12.0663 17.2769 12.3554 17.9422 12.7388 18.4615C13.1222 18.9809 13.5867 19.3638 14.1326 19.6105C14.6784 19.8572 15.2956 19.9805 15.9844 19.9805C16.6992 19.9805 17.3392 19.8734 17.9045 19.6592C18.4698 19.445 18.9539 19.1302 19.3567 18.7147C19.7596 18.2993 20.065 17.7962 20.2729 17.2055C20.4808 16.6147 20.5848 15.9494 20.5848 15.2093C20.5848 14.0019 20.2892 12.9341 19.6979 12.0058C19.1066 11.0776 18.4568 10.1753 17.7485 9.29893C17.0403 8.42259 16.3873 7.52678 15.7895 6.61149C15.1917 5.6962 14.8928 4.65434 14.8928 3.48588L14.9123 3.46641ZM104.347 3.42746C104.347 2.62253 104.519 2.0026 104.864 1.56767C105.208 1.13275 105.692 0.915289 106.316 0.915289C107.264 0.915289 107.969 1.35346 108.431 2.2298C108.892 3.10614 109.123 4.42064 109.123 6.17332H109.903C109.903 5.10873 109.828 4.1902 109.678 3.41772C109.529 2.64525 109.292 2.00909 108.967 1.50925C108.642 1.00941 108.229 0.639406 107.729 0.399223C107.229 0.159042 106.634 0.03895 105.945 0.03895C105.361 0.03895 104.828 0.139568 104.347 0.340801C103.866 0.542034 103.454 0.8309 103.109 1.2074C102.765 1.5839 102.495 2.04155 102.3 2.58033C102.105 3.11912 102.008 3.72606 102.008 4.40117C102.008 5.75138 102.303 6.88413 102.895 7.79942C103.486 8.7147 104.136 9.59104 104.844 10.4284C105.552 11.2658 106.202 12.1519 106.793 13.0867C107.385 14.0214 107.68 15.1834 107.68 16.5725C107.68 17.2996 107.495 17.9065 107.125 18.3934C106.754 18.8802 106.205 19.1237 105.478 19.1237C104.997 19.1237 104.558 19.023 104.162 18.8218C103.765 18.6206 103.424 18.296 103.138 17.8481C102.853 17.4002 102.632 16.8257 102.476 16.1246C102.32 15.4236 102.242 14.5797 102.242 13.593H101.462C101.462 14.7095 101.553 15.6702 101.735 16.4752C101.917 17.2801 102.183 17.9422 102.534 18.4615C102.885 18.9809 103.314 19.3638 103.821 19.6105C104.327 19.8572 104.906 19.987 105.556 20C106.244 20 106.865 19.8961 107.417 19.6884C107.969 19.4807 108.437 19.1756 108.821 18.7731C109.204 18.3707 109.496 17.8838 109.698 17.3126C109.899 16.7413 110 16.1052 110 15.4041C110 14.1707 109.704 13.0769 109.113 12.1227C108.522 11.1685 107.872 10.2467 107.164 9.35735C106.455 8.46803 105.809 7.55924 105.224 6.63097C104.639 5.7027 104.347 4.64135 104.347 3.44694V3.42746ZM86.0429 19.8247H88.2456V10.6329H83.4893V11.3535H85.653V15.112C85.653 16.579 85.4646 17.6079 85.0877 18.1986C84.7109 18.7894 84.243 19.0847 83.6842 19.0847C83.2943 19.0847 82.95 18.9679 82.6511 18.7342C82.3522 18.5005 82.1053 18.0591 81.9103 17.4099C81.7154 16.7608 81.566 15.852 81.462 14.6835C81.358 13.5151 81.306 11.9961 81.306 10.1266C81.306 8.30899 81.3645 6.80623 81.4815 5.61831C81.5984 4.43038 81.7804 3.48264 82.0273 2.77507C82.2742 2.06751 82.5861 1.57417 82.963 1.29504C83.3398 1.01591 83.7882 0.876341 84.308 0.876341C84.7628 0.876341 85.1625 1.00292 85.5068 1.25609C85.8512 1.50925 86.1371 1.889 86.3645 2.39533C86.5919 2.90166 86.7641 3.53132 86.8811 4.28433C86.9981 5.03733 87.0565 5.92016 87.0565 6.93282H87.8363C87.8363 5.72542 87.7615 4.68355 87.6121 3.80721C87.4626 2.93087 87.2287 2.21032 86.9103 1.64557C86.5919 1.08082 86.1891 0.665371 85.7018 0.399223C85.2144 0.133076 84.6394 1.90735e-06 83.9766 1.90735e-06C83.1319 1.90735e-06 82.3782 0.227201 81.7154 0.681599C81.0526 1.136 80.4873 1.79812 80.0195 2.66797C79.5517 3.53782 79.1943 4.59916 78.9474 5.852C78.7005 7.10484 78.577 8.53619 78.577 10.1461C78.577 11.8208 78.6875 13.2749 78.9084 14.5083C79.1293 15.7416 79.4477 16.7608 79.8635 17.5657C80.2794 18.3707 80.783 18.9711 81.3743 19.3671C81.9656 19.7631 82.6251 19.9611 83.3528 19.9611H83.3918H83.4113C83.9961 19.9611 84.5094 19.7923 84.9513 19.4547C85.3931 19.1172 85.6985 18.6887 85.8674 18.1694L86.0429 19.8247ZM0.37037 0.545279H0.955166V0.662125C0.968161 0.662125 0.974659 0.668615 0.974659 0.681599V0.720547C0.974659 0.798445 0.945419 0.86985 0.88694 0.934763C0.82846 0.999678 0.753736 1.03863 0.662768 1.05161C0.5718 1.03863 0.497076 0.999678 0.438596 0.934763C0.380117 0.86985 0.350877 0.798445 0.350877 0.720547C0.350877 0.707563 0.354126 0.697828 0.360624 0.691336C0.367122 0.684845 0.37037 0.675108 0.37037 0.662125V0.545279ZM0.0584795 0.155796L0.0584795 0.720547V0.759495L0.0584795 0.778971C0.0584795 0.86985 0.071475 0.954239 0.0974659 1.03214C0.123457 1.11003 0.162443 1.18144 0.214425 1.24635C0.266407 1.29828 0.331384 1.34372 0.409357 1.38267C0.487329 1.42162 0.565302 1.44109 0.643275 1.44109H0.662768H0.672515H0.682261C0.773229 1.44109 0.8577 1.42162 0.935673 1.38267C1.01365 1.34372 1.08512 1.29179 1.1501 1.22688L1.18908 1.11003L1.22807 0.993185L2.02729 1.59689V1.12951L1.26706 0.603703V0.545279H2.02729V0.155796H0.0389864H0.0584795ZM0.0584795 3.66115H2.02729V3.38851L0.701754 2.27848H2.02729V1.889H0.0584795L0.0584795 2.16164L1.36452 3.27167H0.0584795L0.0584795 3.64168L0.0584795 3.66115ZM0.0584795 3.93379L0.0584795 5.00487H2.02729V4.61539H0.389864L0.389864 3.93379H0.0584795ZM1.7154 6.44596H1.72515C1.72515 6.44596 1.7284 6.45245 1.73489 6.46544C1.73489 6.63421 1.66992 6.78351 1.53996 6.91334C1.41001 7.04317 1.25406 7.10808 1.07212 7.10808H1.06238H1.03314H1.02339H0.994152C0.825211 7.10808 0.675763 7.04317 0.545809 6.91334C0.415854 6.78351 0.350877 6.63421 0.350877 6.46544V6.44596V6.42649V6.40701C0.350877 6.23824 0.415854 6.08893 0.545809 5.95911C0.675763 5.82928 0.825211 5.76436 0.994152 5.76436H1.02339H1.03314H1.06238H1.07212C1.25406 5.76436 1.41001 5.82928 1.53996 5.95911C1.66992 6.08893 1.73489 6.23824 1.73489 6.40701C1.73489 6.42 1.73164 6.42649 1.72515 6.42649C1.71865 6.42649 1.7154 6.43298 1.7154 6.44596ZM0 6.44596L0 6.4557L0 6.48491C0 6.77053 0.100715 7.01396 0.302144 7.21519C0.503574 7.41642 0.747238 7.51704 1.03314 7.51704C1.31904 7.51704 1.55945 7.41642 1.75439 7.21519C1.94932 7.01396 2.04678 6.77053 2.04678 6.48491V6.4557V6.42649V6.41675V6.38754C2.04678 6.10192 1.94932 5.85849 1.75439 5.65726C1.55945 5.45602 1.31904 5.35541 1.03314 5.35541C0.747238 5.35541 0.503574 5.45602 0.302144 5.65726C0.100715 5.85849 0 6.10192 0 6.38754L0 6.41675L0 6.44596ZM0.0584795 9.23077H1.18908H1.23782H1.28655C1.35153 9.23077 1.4165 9.24051 1.48148 9.25998C1.54646 9.27946 1.60494 9.30218 1.65692 9.32814C1.66992 9.35411 1.68291 9.38332 1.69591 9.41578C1.7089 9.44823 1.7154 9.47744 1.7154 9.50341V9.53262V9.56183V9.59104V9.62025H2.04678C2.04678 9.60727 2.05003 9.59429 2.05653 9.58131C2.06303 9.56832 2.06628 9.55534 2.06628 9.54236C2.06628 9.52938 2.06303 9.51639 2.05653 9.50341C2.05003 9.49043 2.04678 9.47744 2.04678 9.46446V9.44499C2.04678 9.36709 2.03704 9.29568 2.01754 9.23077C1.99805 9.16586 1.96231 9.10743 1.91033 9.0555C1.84535 8.99059 1.76738 8.93866 1.67641 8.89971C1.58545 8.86076 1.48798 8.84129 1.38402 8.84129H1.31579H1.26706H0.389864L0.389864 8.23759H2.02729V7.86758H0.0584795L0.0584795 9.23077ZM1.7154 10.8471L1.72515 10.8569L1.73489 10.8666C1.73489 11.0484 1.66992 11.2042 1.53996 11.334C1.41001 11.4638 1.25406 11.5287 1.07212 11.5287H1.06238H1.03314H1.02339H0.994152C0.825211 11.5287 0.675763 11.4638 0.545809 11.334C0.415854 11.2042 0.350877 11.0484 0.350877 10.8666V10.8569V10.8471V10.8374V10.8277C0.350877 10.6459 0.415854 10.4933 0.545809 10.37C0.675763 10.2467 0.825211 10.185 0.994152 10.185H1.02339H1.03314H1.06238H1.07212C1.25406 10.185 1.41001 10.2467 1.53996 10.37C1.66992 10.4933 1.73489 10.6459 1.73489 10.8277L1.72515 10.8374L1.7154 10.8471ZM0 10.8471L0 10.8763L0 10.9056C0 11.1782 0.100715 11.4151 0.302144 11.6164C0.503574 11.8176 0.747238 11.9182 1.03314 11.9182C1.31904 11.9182 1.55945 11.8176 1.75439 11.6164C1.94932 11.4151 2.04678 11.1782 2.04678 10.9056V10.8763V10.8471V10.8179V10.7887C2.04678 10.5161 1.94932 10.2791 1.75439 10.0779C1.55945 9.87667 1.31904 9.77605 1.03314 9.77605C0.747238 9.77605 0.503574 9.87667 0.302144 10.0779C0.100715 10.2791 0 10.5161 0 10.7887L0 10.8277L0 10.8471ZM2.04678 13.8462V13.3593L1.28655 12.9114L2.0078 12.4635V11.9961L0.994152 12.6777L0.0584795 12.074L0.0584795 12.5414L0.662768 12.9114L0.0584795 13.2619L0.0584795 13.7293L0.994152 13.1256L2.04678 13.8462ZM0.0779727 15.8909H2.04678V15.6378L0.721248 14.5278H2.04678V14.1383H0.0779727L0.0779727 14.4109L1.38402 15.5209H0.0779727L0.0779727 15.9104V15.8909ZM1.53996 16.2804C1.60494 16.3324 1.65692 16.4005 1.69591 16.4849C1.73489 16.5693 1.75439 16.6569 1.75439 16.7478V16.777V16.7868C1.75439 16.9685 1.68941 17.1243 1.55945 17.2541C1.4295 17.384 1.27355 17.4489 1.09162 17.4489H1.06238H1.03314H1.01365C0.831709 17.4489 0.675763 17.384 0.545809 17.2541C0.415854 17.1243 0.350877 16.9685 0.350877 16.7868C0.350877 16.6829 0.37037 16.5888 0.409357 16.5044C0.448343 16.42 0.506823 16.3518 0.584795 16.2999H0.136452C0.0974659 16.3648 0.0649773 16.4395 0.0389864 16.5239C0.0129955 16.6082 0 16.6959 0 16.7868L0 16.7965L0 16.8062L0 16.816L0 16.8452C0 16.975 0.022742 17.0983 0.0682261 17.2152C0.11371 17.332 0.181936 17.4359 0.272904 17.5268C0.363873 17.6306 0.474334 17.7118 0.604289 17.7702C0.734243 17.8286 0.870695 17.8578 1.01365 17.8578H1.02339H1.05263H1.06238H1.07212C1.21507 17.8578 1.34828 17.8286 1.47174 17.7702C1.59519 17.7118 1.7024 17.6306 1.79337 17.5268C1.88434 17.4359 1.95582 17.332 2.0078 17.2152C2.05978 17.0983 2.08577 16.9685 2.08577 16.8257V16.816V16.7868V16.777V16.7673C2.08577 16.6764 2.07277 16.5888 2.04678 16.5044C2.02079 16.42 1.9883 16.3453 1.94932 16.2804H1.50097H1.53996ZM0.0779727 19.7858H2.04678V19.3963H0.409357L0.409357 18.5979H2.04678V18.2084H0.0779727L0.0779727 19.8053V19.7858Z" fill="#F74A33"/>
</svg>
