<svg width="47" height="20" viewBox="0 0 47 20" fill="none" xmlns="http://www.w3.org/2000/svg">
<path d="M44.886 8.60933H35.0592C33.6512 8.60933 33.134 9.41254 32.9502 10.7165C32.9502 10.7165 32.1204 15.3369 32.0917 15.7569C31.9977 17.12 32.8854 17.8641 34.2007 17.8641H34.8968C34.8968 17.9552 34.8968 19.4017 34.8968 19.4386C34.9067 19.8231 35.2011 20.0012 35.5478 19.8363C35.6092 19.8054 35.6668 19.7678 35.72 19.7244C36.5123 19.1089 38.1039 17.8669 38.1072 17.8641H44.0256C45.4333 17.8641 45.9506 17.0609 46.1344 15.7569C46.1344 15.7569 46.9637 11.1358 46.9929 10.7165C47.089 9.35344 46.2013 8.60933 44.886 8.60933Z" fill="#FFDF00"/>
<path d="M4.31118 10.6297C3.18574 10.6287 2.07811 10.3489 1.08754 9.8153L0 12.5309C0.640562 12.9774 1.96135 13.4426 3.99996 13.4816C6.8936 13.4816 9.59298 12.1039 9.59298 8.92305C9.59298 7.37087 8.54442 6.28459 6.95208 5.47024C6.8593 5.41858 6.76783 5.36822 6.67821 5.31888C5.79232 4.83112 5.08753 4.44306 5.08753 3.87981C5.08753 3.31719 5.65078 2.85125 6.81562 2.85125C7.90385 2.81302 8.89464 3.18158 9.32212 3.39439L10.3512 0.621018C9.72944 0.329635 8.79785 0 7.06905 0C4.02017 0 1.59233 1.64886 1.59025 4.42641C1.59025 6.23037 3.0858 7.25821 4.34809 7.91747C5.47465 8.519 6.05739 8.86812 6.05739 9.52738C6.05739 10.3 5.2219 10.6491 4.31118 10.6297Z" fill="#E30E24"/>
<path d="M15.2841 3.72377L15.7889 1.00811L12.3933 1.93929L12.0625 3.72306H10.897L10.4097 6.22662H11.5773L10.9172 9.58207C10.7815 10.3192 10.723 10.8234 10.723 11.3471C10.723 12.6273 11.6163 13.4813 13.4223 13.4813C14.0643 13.4813 14.8399 13.4034 15.2479 13.2484L15.6705 10.669C15.3983 10.6885 15.1268 10.6885 14.8935 10.6885C14.2913 10.6885 14.1165 10.3589 14.1165 9.95134C14.1165 9.66064 14.1945 9.17523 14.2523 8.86508L14.796 6.2273H16.7386L17.226 3.72377H15.2841Z" fill="#E30E24"/>
<path fill-rule="evenodd" clip-rule="evenodd" d="M22.6444 13.2681C22.6541 12.9966 22.6685 12.7201 22.6832 12.4437C22.698 12.1673 22.7124 11.8909 22.7221 11.6193H22.6832C21.8679 13.0352 20.6829 13.4816 19.6733 13.4816C17.964 13.4816 16.7212 12.1603 16.7212 10.0866C16.7212 6.90567 18.7403 3.51128 23.6544 3.51128C24.8129 3.52168 25.9639 3.69756 27.0724 4.03355L26.0433 9.04064C25.8491 10.0692 25.6354 12.031 25.6743 13.2695L22.6444 13.2681ZM23.344 6.0503C23.1452 6.01427 22.9436 5.99472 22.7418 5.99188C21.21 5.99188 20.1781 8.06773 20.1781 9.46416C20.1781 10.3564 20.5666 10.8216 21.1299 10.8216C21.7315 10.8216 22.5279 10.2208 22.9555 7.97037L23.344 6.0503Z" fill="#E30E24"/>
<path d="M28.1209 7.79754L27.0724 13.2678H30.395L30.9965 10.009C31.3273 8.28227 31.9873 6.73076 33.9486 6.73076C34.0316 6.73076 34.1149 6.73635 34.1922 6.74153C34.2591 6.74603 34.3217 6.75023 34.3762 6.75023L35.0362 3.53039C34.8489 3.51419 34.6608 3.50767 34.473 3.51092C33.152 3.51092 32.0812 4.38368 31.3849 5.6445H31.3273C31.3849 5.004 31.424 4.36421 31.4629 3.72373H28.6082C28.5791 3.95945 28.5482 4.27884 28.5122 4.6514C28.4268 5.53619 28.3125 6.72093 28.1209 7.79754Z" fill="#E30E24"/>
<path d="M34.4332 16.3273L35.6315 9.9843H36.9196L36.4365 12.5129L36.4545 12.5219C36.8124 12.12 37.2684 11.8606 37.8469 11.8606C38.5266 11.8606 38.947 12.2896 38.947 13.0428C38.9402 13.3064 38.9134 13.5691 38.8669 13.8286L38.3928 16.3322H37.1102L37.5573 13.9378C37.5966 13.7589 37.6178 13.5765 37.6199 13.3933C37.6199 13.1075 37.4947 12.9016 37.1731 12.9016C36.7253 12.9016 36.2678 13.4468 36.0995 14.3314L35.724 16.3322L34.4332 16.3273Z" fill="black"/>
<path d="M39.2451 16.3272L40.0806 11.9585H41.3644L40.5331 16.3272H39.2451Z" fill="black"/>
<path d="M40.2552 10.7889C40.2552 10.6918 40.2744 10.5957 40.3118 10.5061C40.3493 10.4166 40.4041 10.3353 40.4731 10.2671C40.5424 10.1989 40.6244 10.1451 40.7146 10.1088C40.8047 10.0726 40.901 10.0546 40.9982 10.0559C41.3734 10.0559 41.6423 10.3062 41.6423 10.6901C41.6423 11.1456 41.2942 11.4141 40.882 11.4141C40.522 11.4141 40.2552 11.1727 40.2552 10.7889Z" fill="black"/>
<path d="M43.8332 11.9616L44.0659 10.7355L42.7499 11.0387L42.5703 11.9616H42.0064L41.8273 12.9352H42.3844L42.0446 14.6737C41.9888 14.9431 41.9594 15.2172 41.9568 15.4923C41.9568 16.0368 42.3272 16.4304 43.0933 16.4304C43.3703 16.4304 43.6919 16.3943 43.8534 16.3316L44.0054 15.3226C43.8866 15.337 43.767 15.3429 43.6475 15.34C43.3703 15.34 43.2804 15.1884 43.2804 14.9742C43.2877 14.7871 43.311 14.601 43.3501 14.4178L43.6454 12.9352H44.5755L44.7636 11.9616H43.8332Z" fill="black"/>
</svg>
