<svg width="36" height="20" viewBox="0 0 36 20" fill="none" xmlns="http://www.w3.org/2000/svg">
<path d="M3.29234 3.27795C3.29234 3.61811 3.50956 3.64904 3.94401 3.64904V4.7623C0.995977 4.886 1.49249 4.66954 1.46146 2.04098H1.08907C1.08907 1.82451 1.08907 1.39157 1.08907 1.1751H1.43042V0.18553C1.8959 0.18553 2.82686 0.18553 3.29234 0.18553V1.1751H3.78885C3.78885 1.39157 3.78885 1.82451 3.78885 2.04098H3.29234V3.27795Z" fill="black"/>
<path d="M8.28852 2.78318C8.28852 3.37074 8.28852 4.23661 8.28852 4.79325H6.55073C6.55073 4.54585 6.55073 3.12334 6.55073 2.90687C6.55073 2.65948 6.5197 2.38116 6.27144 2.35024C6.11628 2.35024 6.02318 2.41209 5.99215 2.56671C5.93009 2.78318 5.96112 3.24704 5.96112 3.49443V4.76232C5.52667 4.76232 4.65778 4.76232 4.22333 4.76232V0C4.62675 0 5.21635 0 5.99215 0V1.51528C7.14033 0.432937 8.44368 1.32974 8.28852 2.78318Z" fill="black"/>
<path d="M10.1815 1.08233C10.5228 0.989561 11.0504 1.08233 11.3607 1.14418C11.7951 1.2988 12.1675 1.48435 12.4158 1.76266C12.7261 2.10283 12.8502 2.62854 12.8502 3.03056H10.3366C10.3366 3.30887 10.3677 3.71089 10.4608 3.83458C10.678 4.14382 11.0193 3.77274 10.9883 3.46349C11.4538 3.46349 12.2916 3.4635 12.8192 3.43257C12.8192 3.61812 12.7881 3.67996 12.695 3.92736C12.633 4.05105 12.633 4.02013 12.5709 4.14382C12.0434 4.94785 10.6469 4.91693 9.99527 4.79323L9.84011 4.76231C7.792 4.32937 8.13335 1.2988 10.1815 1.08233ZM11.1435 2.65947V2.62854C11.0504 1.63897 10.3677 1.79359 10.3366 2.69039C10.5538 2.62854 10.9262 2.65947 11.1435 2.65947Z" fill="black"/>
<path d="M7.63682 13.6376C7.54373 13.8231 7.45063 14.0396 7.01618 14.2561C6.39555 14.5344 5.61975 14.6581 4.75085 14.6581C2.2683 14.7508 0.00296412 12.8335 0.00296412 10.3596C-0.0901317 7.5455 2.02004 5.19527 4.87498 5.28804C6.27142 5.25712 7.3265 5.78282 8.22643 6.6487L8.35056 5.65913C9.46771 5.65913 11.702 5.65913 12.8192 5.65913C12.7881 7.17441 12.9123 14.3797 12.7571 15.7404C12.6019 17.7505 11.3296 18.7401 9.68493 19.3895C9.71596 19.3895 9.28152 19.575 8.72294 19.6987C8.28849 19.8224 7.69888 19.9461 5.58871 19.8533C5.37149 19.8533 4.71982 19.7605 4.09918 19.6059C1.95798 19.0802 0.375348 17.9051 0.0650282 15.6167C1.43043 15.6476 4.65776 15.5858 6.08523 15.6167C6.05419 16.0806 6.27142 16.8228 6.76793 16.8228C7.14031 16.8228 7.38857 16.6063 7.51269 16.1733C7.69889 15.7713 7.72992 14.2561 7.63682 13.6376ZM7.95287 10.1437C7.9839 8.5666 7.51269 7.51458 6.82999 7.5455C5.80594 7.60735 5.74387 9.09171 5.71284 9.86481C5.71284 9.95759 5.71284 10.1741 5.71284 10.4214C5.65078 12.0295 7.17134 13.8231 7.85405 11.1018C7.89251 10.9484 7.95287 10.4839 7.95287 10.1437Z" fill="#FECCCB"/>
<path d="M19.2738 2.38114V4.73138H13.9674C13.9674 3.77273 13.9363 3.2161 13.9363 2.41207L19.2738 2.38114ZM19.2738 15.895C19.2738 15.895 14.0605 15.895 13.9363 15.895C13.9363 15.8641 14.0605 8.13304 14.0605 5.62818C15.3948 5.62818 17.8774 5.62818 19.2118 5.65911C19.2428 5.84465 19.2738 15.6167 19.2738 15.895Z" fill="#FECCCB"/>
<path d="M20.3599 5.62819C21.5081 5.62819 23.8045 5.62819 24.9216 5.62819C25.0147 6.1539 25.325 8.00936 25.3561 8.13305H25.6664C25.9147 6.98886 26.5043 6.30853 27.218 5.84466C27.249 5.81374 27.3421 5.75189 27.5283 5.65912L27.6214 5.62819C28.3972 5.28803 28.9248 5.22618 29.6385 5.28803V10.0813C26.1008 9.49372 26.4112 13.4211 26.4732 15.895C24.9527 15.895 21.8805 15.895 20.3599 15.895C20.3599 13.3592 20.3599 8.1949 20.3599 5.62819Z" fill="#FECCCB"/>
<path d="M30.7246 2.44302C30.7246 2.44302 34.6036 2.44302 36 2.44302V15.895H30.7246V2.44302Z" fill="#FECCCB"/>
</svg>
