<svg width="70" height="20" viewBox="0 0 70 20" fill="none" xmlns="http://www.w3.org/2000/svg">
<path d="M53.0099 5.79182H55.5775V6.7716C56.0463 6.12584 56.6714 5.61368 57.8769 5.61368C58.7031 5.61368 59.105 5.74728 59.4398 5.99241L58.5243 8.39723C58.0332 8.10784 57.7653 8.01877 57.2296 8.01877C56.3366 8.01877 55.8677 8.50875 55.5774 9.0878V15.8129H53.0099L53.0099 5.79182ZM12.7034 15.8575H10.4037L7.92571 10.6806L5.44752 15.8575H3.25964L0 5.792H3.00849C3.00849 5.792 4.55463 12.1165 4.64393 12.584C4.75546 12.1609 7.94848 5.792 7.94848 5.792H8.1261C8.1261 5.792 11.3862 12.1387 11.4979 12.6065C11.5873 12.1387 13.0214 5.792 13.0214 5.792H15.8737L12.7034 15.8575ZM34.1892 12.8735V11.8492C33.7427 11.5152 33.1624 11.3592 32.4256 11.3592C31.5771 11.3592 30.8181 11.76 30.8181 12.6063C30.8181 13.3635 31.4432 13.7866 32.2469 13.7866C33.3184 13.7866 33.8767 13.3188 34.1893 12.8735H34.1892ZM29.032 6.50465C29.9027 5.99241 31.2645 5.54705 32.5817 5.54705C35.5511 5.54705 36.6004 7.06126 36.6004 9.71121V15.8132H34.368V14.6552C33.832 15.4122 32.7605 15.9466 31.3985 15.9466C29.5679 15.9466 28.2506 14.8109 28.2506 12.8735C28.2506 10.6686 29.8804 9.62205 31.912 9.62205C32.8049 9.62205 33.698 9.9117 34.1893 10.268C34.2563 8.59782 33.8098 7.68475 32.3138 7.68475C31.153 7.68475 30.4163 8.04113 29.6794 8.37514L29.032 6.50465ZM48.9942 12.4949C49.9542 12.4949 50.624 13.3635 50.624 14.1429C50.624 15.0559 49.9542 15.9245 48.9941 15.9245C47.8778 15.9245 47.2082 15.0559 47.2082 14.1428C47.2082 13.3635 47.8778 12.4948 48.9941 12.4948L48.9942 12.4949ZM70 15.813H67.4325V14.5882C66.8298 15.323 65.7805 16.0579 64.2174 16.0579C62.253 16.0579 60.6903 14.7888 60.6903 11.916V5.792H63.2576V11.3813C63.2576 12.7175 63.7711 13.6749 65.1776 13.6749C66.0261 13.6749 66.8522 13.2074 67.4325 12.4504V5.792H70V15.813ZM39.9865 19.902H42.7371C42.9239 19.5039 43.981 16.3108 44.1857 15.813L48.1373 5.792H45.2127L42.9165 12.3983L40.2117 5.792H37.1308L41.5994 15.4353L39.9865 19.902H39.9865ZM16.4759 10.9153C17.6035 10.4314 17.6919 9.71165 18.2062 8.45591C18.8848 6.79943 20.2062 6.28772 20.2062 6.28772C20.2062 6.28772 18.9768 7.231 18.4815 8.47376C18.0757 9.49233 17.9957 10.6219 16.6884 11.2576C16.3759 11.4096 16.1026 11.5129 15.8678 11.5836C15.9204 12.2716 16.0964 12.9447 16.3875 13.5707C18.2302 13.3282 18.9319 11.989 19.4629 10.3935C20.2776 7.94534 21.186 7.44661 21.186 7.44661C21.186 7.44661 20.5718 7.9358 19.4187 11.4154C18.8017 13.2772 17.4498 13.8236 16.5981 13.9797C16.7407 14.2316 16.902 14.4725 17.0807 14.7004C17.5661 14.7316 18.1553 14.7216 18.7032 14.5829C19.3949 14.4079 20.006 14.0897 20.4322 13.8262C21.7693 12.9599 22.5494 11.5056 23.0453 10.6022C23.1512 10.4095 23.733 9.5077 23.9535 8.86848C24.2072 8.13294 24.2028 7.53286 24.1261 7.03554C24.4928 7.37398 24.6762 7.73883 24.777 7.97839C24.8398 8.12799 24.8974 8.36648 24.9347 8.62857C25.071 8.59517 25.2571 8.52501 25.4503 8.3747C25.8234 8.08451 26.3436 7.41666 24.8914 6.31016C23.9676 5.69382 22.8587 5.33224 21.6639 5.33224C18.4552 5.33224 15.8536 7.92448 15.8489 11.1239C16.0633 11.0717 16.273 11.002 16.4759 10.9153ZM20.0462 14.4984C19.6413 14.6908 19.125 14.8785 18.4815 15.0045C18.0651 15.0861 17.6994 15.0923 17.3845 15.0589C17.8062 15.5162 18.2987 15.9031 18.8432 16.205C19.105 15.8703 19.5967 15.2307 20.0462 14.4984Z" fill="#F42F3A"/>
<path d="M24.9458 0V6.00919C25.5728 6.47505 26.192 7.10526 26.14 7.75377C26.08 8.50159 25.4213 8.80565 24.9666 8.92777C24.9734 9.01669 24.977 9.10581 24.9775 9.19498C24.9775 9.42473 25.1692 9.5776 25.1692 9.5776C25.3885 9.77394 25.8217 10.0746 25.9284 10.1528C26.0417 10.2436 25.9459 10.4298 25.8711 10.4961C25.7301 10.5954 25.683 10.5579 25.649 10.7163C25.6434 10.8631 25.7193 10.9229 25.7872 10.9483C25.7986 10.9492 25.8258 10.9607 25.8373 10.9605C25.8373 10.9605 25.8719 10.9708 25.8872 11.0139C25.9035 11.058 25.8996 11.1058 25.8985 11.1194C25.8857 11.2783 25.7317 11.3565 25.4269 11.4698C25.6154 11.4802 25.8733 11.529 25.8125 11.7241C25.7968 11.8273 25.7202 11.8576 25.6444 11.8987C25.5648 11.937 25.537 12.0746 25.5328 12.1169C25.5285 12.2945 25.7141 12.3978 25.702 12.6375C25.6941 12.734 25.6482 12.8885 25.5367 12.983C25.1447 13.315 24.12 13.1338 23.6249 13.241C23.0352 13.3526 22.3063 15.1989 22.2217 16.9058C25.1716 16.6257 27.479 14.1484 27.479 11.1325H27.5136V0H24.9458Z" fill="#F42F3A"/>
</svg>
