<svg width="91" height="20" viewBox="0 0 91 20" fill="none" xmlns="http://www.w3.org/2000/svg">
<path d="M26.313 0.796679V0H20.6452V0.796679H23.3658L19.2534 15.0373L15.283 0.796679H17.7285V0H10.5507V0.796679H12.7889L8.67616 15.0373L4.70489 0.796679H7.15129V0H0V0.796679H1.80255L7.1463 19.917H8.03698L13.0401 2.68879L13.1701 2.09128L17.7238 19.917H18.6176L24.1814 0.796679H26.313ZM46.7503 16.795V16.9294C46.7503 16.9294 46.8391 15.7294 46.7503 16.795L46.7603 5.37759H47.9829V4.87966H44.5417L40.8955 14.9377L37.4384 4.87966H34.0222V5.37759H35.227L35.2257 16.9294H34.0951V17.5269H37.6812V16.9294H35.9896V5.9751L40.0456 17.9253H40.6097L44.8758 6.07468L44.8568 16.9294H43.5388V17.5269H48.1169V16.9294H46.7391L46.7503 16.795ZM54.6333 4.58091H53.9234L49.9683 16.9294H48.7299V17.5269H52.4328V16.9294H50.6502L51.8582 13.1452H55.2323L56.291 16.9294H54.8855V17.5269H59.3653V16.9294H58.1537L54.6333 4.58091ZM66.3496 5.37759H68.1933V13.7427L62.8196 4.87966H59.6842V5.37759H60.797V16.9294H59.6842V17.5269H63.2313V16.9294H61.3639V6.47302L68.1874 17.8257L68.1933 17.7261V17.8257H68.758V5.37759H69.9709V4.87966H66.3496V5.37759ZM28.3356 4.78008C25.4261 4.78008 23.7214 6.5726 23.7114 9.85891V12.6473C23.7276 15.9336 25.4283 17.7261 28.3356 17.7261C31.2432 17.7261 32.9594 15.9336 32.9753 12.6473V9.85891C32.9663 6.5726 31.246 4.78008 28.3356 4.78008ZM80.2374 7.17011C80.2165 7.17011 80.2015 7.17011 80.1816 7.07053H80.1735C80.1105 7.07053 80.0417 6.97094 79.9706 6.97094C79.7374 6.83552 79.4715 6.76662 79.2018 6.77177C78.2728 6.77177 77.838 7.17011 77.4292 7.76762C77.1633 8.16596 76.8822 8.76347 76.7202 9.06223C76.7102 8.86306 76.6653 8.5643 76.4634 7.96679C76.1944 7.2697 75.9395 7.07053 75.8984 6.97094H73.7019V7.56845H75.0928V15.9336H73.7019V16.4315H78.6979V15.9336H76.7242V10.1577C76.9392 9.56015 77.2671 8.96264 77.757 8.16596C78.2569 7.56845 78.514 7.36928 78.7998 7.36928C78.9257 7.36928 78.9288 7.96679 78.9229 8.26555C78.9229 8.26555 78.9207 8.36513 78.9166 8.36513C78.9166 9.65974 79.2866 9.95849 79.7437 9.95849C80.1975 9.95849 80.5655 9.65974 80.5655 8.36513C80.5655 7.96679 80.4406 7.46887 80.2495 7.17011H80.2374ZM30.7091 14.1411C30.7091 16.8299 29.925 17.2282 28.3325 17.2282C26.7528 17.2282 25.9671 16.8299 25.95 14.1411V8.46472C25.9621 5.77593 26.7559 5.37759 28.3356 5.37759C29.9281 5.37759 30.7088 5.77593 30.7088 8.46472L30.7091 14.1411ZM52.0149 12.6473L53.5856 7.76762H53.7096L55.0902 12.6473H52.0149ZM71.3565 14.0415C70.6768 14.0415 70.1249 14.639 70.1249 15.3361C70.1249 16.1328 70.6768 16.7303 71.3565 16.7303C72.0365 16.7303 72.5903 16.1328 72.5903 15.3361C72.5903 14.639 72.0365 14.0415 71.3565 14.0415ZM91 15.9336V16.4315H88.7107C88.2647 16.4315 87.9646 15.834 87.9867 14.9377H87.9858C87.8088 15.2365 86.8701 16.7303 85.1972 16.7303C82.7009 16.7303 82.7679 14.4398 82.7679 14.4398V7.56845H81.3294V6.97094H84.4034V15.3361C84.4034 15.7344 84.6475 16.1328 85.4132 16.1328C86.9 16.1328 87.9627 14.1411 87.9858 14.1411V6.97094H89.6204V15.6348C89.6204 15.6348 89.6574 15.9336 89.9024 15.9336H91Z" fill="#C00783"/>
</svg>
