<svg width="79" height="20" viewBox="0 0 79 20" fill="none" xmlns="http://www.w3.org/2000/svg">
<path d="M4.24027 0.00134277C4.35871 0.0462265 4.47217 0.111059 4.59435 0.1335C5.5793 0.308048 6.43583 0.692054 6.90088 1.64085C7.12654 2.10215 7.24 2.60211 7.2375 3.12824C7.22878 5.13056 7.23127 7.13287 7.2375 9.13643C7.2375 9.39451 7.15272 9.47431 6.89464 9.46807C6.20019 9.45186 5.50574 9.46184 4.78137 9.46184C4.76516 9.18879 4.7502 8.93071 4.73025 8.59408C4.5956 8.71377 4.51705 8.77237 4.45097 8.84344C3.74405 9.60771 2.82269 9.72865 1.89135 9.55161C1.08594 9.39825 0.561047 8.80354 0.276783 8.02805C0.213198 7.856 0.185769 7.67023 0.129664 7.49443C0.0997417 7.40217 0.043637 7.31989 0 7.23261C0 6.89972 0 6.56808 0 6.2352C0.0448837 6.14667 0.103482 6.06314 0.133404 5.97088C0.195743 5.77888 0.218185 5.56942 0.301719 5.38864C0.930091 4.03215 2.4312 3.48108 3.79891 3.96732C4.0545 4.05833 4.31133 4.14561 4.59809 4.24535C4.59809 3.8389 4.65045 3.44368 4.58188 3.07089C4.52328 2.75421 4.30759 2.47868 3.96972 2.35275C3.33511 2.11711 2.68804 2.20688 2.0447 2.29041C1.75545 2.32782 1.47368 2.42132 1.16822 2.49364C1.10464 1.78048 1.04479 1.11222 0.983702 0.435219C1.55971 0.32301 2.06839 0.225761 2.57458 0.119786C2.63692 0.104825 2.68804 0.0412394 2.74414 0.00134277C3.24285 0.00134277 3.74156 0.00134277 4.24027 0.00134277ZM4.63923 6.60923C4.63923 6.60923 4.63799 6.60923 4.63674 6.60923C4.63674 6.33992 4.64173 6.07062 4.633 5.80132C4.63051 5.72776 4.60682 5.63425 4.55819 5.58563C4.20536 5.23653 3.1269 5.2091 2.81521 5.73025C2.60575 6.0806 2.58954 6.42471 2.59453 6.795C2.60575 7.68145 3.40618 8.17642 4.21907 7.8161C4.51331 7.68519 4.69409 7.51937 4.64297 7.16653C4.61679 6.9845 4.63799 6.795 4.63799 6.60798L4.63923 6.60923Z" fill="#E40520"/>
<path d="M53.363 0.00124677C53.4465 0.0473773 53.5263 0.12343 53.6161 0.135898C54.7394 0.299225 55.5685 0.867752 56.0385 1.91005C56.137 2.12699 56.1944 2.38258 56.1969 2.62071C56.2143 4.77139 56.2106 6.92207 56.2281 9.0715C56.2305 9.37821 56.157 9.48668 55.8316 9.47047C55.2306 9.44179 54.6272 9.45675 54.0238 9.46424C53.8255 9.46673 53.7383 9.40813 53.7582 9.19493C53.7732 9.02413 53.747 8.84958 53.7358 8.59399C53.5974 8.70869 53.5088 8.76604 53.439 8.8421C52.5775 9.79463 50.9019 9.89562 49.9418 9.04532C49.5316 8.68126 49.291 8.17881 49.1327 7.62774C48.9581 7.02056 49.0292 6.43583 49.1589 5.85733C49.3035 5.21399 49.6551 4.67788 50.1987 4.27642C51.0427 3.65304 52.762 3.69792 53.5949 4.33377C53.5949 3.90738 53.6647 3.50093 53.5799 3.12939C53.4203 2.43868 52.9216 2.18684 52.2159 2.21052C51.605 2.23172 51.0028 2.24294 50.4218 2.45988C50.3508 2.48606 50.261 2.46362 50.1825 2.46362C50.1201 1.86018 50.0503 1.27794 50.0079 0.693204C50.0017 0.603437 50.1064 0.44385 50.1899 0.418915C50.5802 0.306706 50.9829 0.23564 51.3769 0.137145C51.4629 0.11595 51.5365 0.0473773 51.6162 0C52.1985 0 52.7795 0 53.3617 0L53.363 0.00124677ZM53.6348 6.58544C53.6348 6.38845 53.6348 6.19146 53.6348 5.99323C53.6348 5.56309 53.4453 5.37857 53.0151 5.33493C52.0015 5.23394 51.5065 5.74886 51.5938 6.65651C51.6013 6.73879 51.5714 6.83106 51.5988 6.90337C51.6898 7.14524 51.7559 7.41579 51.9105 7.61153C52.1424 7.90453 52.7994 7.9731 53.1797 7.82723C53.5001 7.70379 53.7009 7.528 53.6398 7.144C53.6111 6.96197 53.6348 6.77121 53.6348 6.5842V6.58544Z" fill="#E40520"/>
<path d="M28.4274 0.0012207C28.6231 0.0884946 28.8126 0.191977 29.0158 0.259302C29.7377 0.498682 30.2514 0.982429 30.6541 1.60955C31.3111 2.6344 31.3249 3.78018 31.2974 4.93594C31.285 5.45293 31.0165 5.71143 30.492 5.71143C29.2664 5.71143 28.0409 5.71143 26.8153 5.71143C26.6931 5.71143 26.5709 5.71143 26.4562 5.71143C26.3191 6.40463 26.7779 7.18387 27.4262 7.3821C28.1107 7.59156 28.8002 7.56662 29.4896 7.39706C29.8138 7.31727 30.1404 7.24371 30.5207 7.15394C30.5656 7.58533 30.6279 8.0192 30.6504 8.45432C30.6865 9.14753 30.6728 9.1413 30.0182 9.36073C29.3288 9.59138 28.6131 9.72977 27.8975 9.68987C26.6158 9.61881 25.4538 9.21361 24.6846 8.09775C24.3205 7.57161 24.0824 6.98688 23.944 6.3423C23.7744 5.55683 23.7881 4.76762 23.8667 3.99961C23.9714 2.97851 24.3554 2.03096 25.0785 1.2455C25.4326 0.861492 25.8229 0.552293 26.3041 0.357797C26.5086 0.27551 26.723 0.215665 26.9287 0.137119C27.016 0.103456 27.0958 0.0473512 27.1806 0.0012207C27.5958 0.0012207 28.0122 0.0012207 28.4274 0.0012207ZM27.7391 4.24523C27.7391 4.24523 27.7391 4.24647 27.7391 4.24772C28.092 4.24772 28.4448 4.24523 28.7977 4.24772C28.9959 4.25021 29.1118 4.15172 29.067 3.96346C28.9647 3.53956 28.8675 3.10693 28.6992 2.70796C28.6181 2.51471 28.4037 2.31398 28.2067 2.24541C27.496 2.00104 26.8876 2.34889 26.6607 3.077C26.5797 3.33758 26.5036 3.60065 26.4288 3.86372C26.3577 4.11432 26.4438 4.23525 26.7143 4.24149C27.0559 4.25021 27.3988 4.24398 27.7416 4.24398L27.7391 4.24523Z" fill="#E40520"/>
<path d="M26.5576 19.825C26.3931 19.7439 26.2322 19.6479 26.0614 19.5831C25.1862 19.2552 24.6227 18.6206 24.1925 17.8089C23.6065 16.7005 23.5916 15.5024 23.73 14.3379C23.902 12.8966 24.5479 11.6449 25.9205 10.938C26.2672 10.7597 26.6898 10.736 27.0576 10.5901C27.5887 10.3794 28.1161 10.5216 28.6111 10.6338C29.2781 10.7846 29.8628 11.1462 30.2942 11.7185C31.0971 12.7844 31.2231 14.01 31.1757 15.2842C31.167 15.5311 31.1744 15.7779 31.1744 16.0659H26.3282C26.2285 16.7803 26.8606 17.6655 27.5451 17.7204C27.8892 17.7478 28.2433 17.8713 28.5737 17.8214C29.1809 17.7304 29.7756 17.5459 30.4276 17.3863C30.47 17.9922 30.5186 18.6243 30.5511 19.2577C30.5548 19.32 30.475 19.421 30.4127 19.4459C30.1708 19.5394 29.9177 19.6055 29.6721 19.6903C29.5848 19.7202 29.5075 19.7788 29.4265 19.8237H26.5589L26.5576 19.825ZM28.8106 14.5972C28.8554 14.0823 28.7969 13.641 28.5724 13.2158C28.3705 12.8331 28.0363 12.6398 27.6548 12.6273C27.3082 12.6149 26.9417 12.7533 26.7808 13.1173C26.6063 13.5138 26.4654 13.9265 26.3395 14.3417C26.322 14.4015 26.4729 14.586 26.5477 14.5885C27.2932 14.6072 28.0388 14.5997 28.8106 14.5997V14.5972Z" fill="#0076BE"/>
<path d="M42.0177 19.8249C41.9716 19.7837 41.9305 19.7139 41.8793 19.7052C41.1687 19.588 40.65 19.1591 40.175 18.6629C39.7848 18.2577 39.5828 17.7565 39.387 17.2328C39.1439 16.582 39.0604 15.905 39.0704 15.2442C39.0916 13.9601 39.3733 12.7183 40.2847 11.7321C40.7099 11.272 41.2048 10.8805 41.8419 10.7322C42.1873 10.6511 42.5351 10.5152 42.8817 10.5115C44.2108 10.5003 45.3192 10.9541 45.9962 12.1722C46.2605 12.6485 46.4812 13.1472 46.5061 13.7107C46.536 14.379 46.5784 15.0472 46.6233 15.7143C46.642 15.9836 46.5373 16.0758 46.2642 16.0746C44.8305 16.0646 43.3967 16.0696 41.9629 16.0696C41.9118 16.0696 41.8606 16.0758 41.8108 16.0796C41.6499 16.6219 41.9679 17.3089 42.5551 17.5844C43.1136 17.8462 43.6984 17.9472 44.3168 17.7453C44.702 17.6193 45.1085 17.5607 45.5025 17.4635C45.6059 17.4386 45.7032 17.3849 45.8466 17.3288C45.8565 17.4622 45.864 17.5695 45.8728 17.6767C45.9139 18.148 45.9338 18.6217 46.0024 19.0893C46.0485 19.4022 45.8353 19.4808 45.6396 19.5518C45.4239 19.6304 45.1845 19.6441 44.9589 19.6989C44.9265 19.7064 44.909 19.7812 44.8841 19.8249H42.0165H42.0177ZM41.7297 14.5972C42.5464 14.5972 43.2832 14.5947 44.0188 14.5997C44.2083 14.6009 44.2819 14.5161 44.2744 14.3353C44.2557 13.8915 44.1559 13.4763 43.9053 13.0998C43.5812 12.6111 42.969 12.4864 42.4865 12.8218C41.8719 13.2494 41.8557 13.9152 41.7297 14.5984V14.5972Z" fill="#0076BE"/>
<path d="M56.6045 19.8249C56.4387 19.7389 56.2779 19.6391 56.1046 19.5693C55.0074 19.1205 54.303 18.3076 54 17.1817C53.823 16.5234 53.6235 15.8277 53.6684 15.1632C53.7669 13.707 54.1347 12.3256 55.3652 11.3319C56.0971 10.7409 56.9187 10.5975 57.8239 10.5913C58.8899 10.5826 59.7065 11.0364 60.3212 11.8456C60.6017 12.2146 60.8174 12.6722 60.9271 13.1235C61.0804 13.7469 61.1253 14.3989 61.1777 15.0423C61.1989 15.3029 61.1403 15.5784 61.0717 15.8352C61.0493 15.92 60.8835 16.0185 60.7812 16.0222C60.5157 16.0297 60.2488 15.9711 59.9808 15.9686C59.0569 15.9612 58.1331 15.9612 57.2092 15.9686C56.9437 15.9711 56.6769 15.9936 56.415 16.031C56.3477 16.0409 56.2417 16.1394 56.2405 16.2005C56.2205 16.8376 56.824 17.5308 57.4374 17.739C58.2066 17.9996 58.921 17.8201 59.6492 17.6144C59.7177 17.5944 59.795 17.6019 59.8636 17.5844C60.4271 17.4373 60.4296 17.4473 60.4483 18.0433C60.4558 18.2964 60.4982 18.5532 60.558 18.8C60.659 19.2152 60.4932 19.4658 60.0693 19.5593C59.7813 19.6217 59.5058 19.7351 59.224 19.8261H56.6058L56.6045 19.8249ZM56.2604 14.6097H58.8313C58.9422 14.2381 58.8462 13.8628 58.744 13.4838C58.6256 13.045 58.1455 12.6273 57.688 12.5787C57.3414 12.5425 56.6644 12.9315 56.5509 13.2918C56.4238 13.6958 56.3639 14.1222 56.2592 14.6097H56.2604Z" fill="#0076BE"/>
<path d="M72.0644 19.8249C72.0245 19.6578 71.9522 19.492 71.951 19.3249C71.9448 16.5833 71.951 13.8404 71.9423 11.0987C71.9423 10.8344 71.9984 10.7322 72.2839 10.7422C72.906 10.7634 73.5306 10.7696 74.1528 10.7397C74.4869 10.7235 74.5493 10.8419 74.5418 11.1449C74.5218 11.9652 74.5343 12.7856 74.5355 13.606C74.5355 13.7057 74.5542 13.8055 74.5555 13.8204C75.3347 13.8815 76.0915 13.8479 76.7984 14.0187C77.7796 14.2556 78.5688 14.8154 78.8743 15.8664C79.262 17.1955 78.7546 18.7988 77.3121 19.4297C77.0478 19.5456 76.756 19.598 76.4805 19.6902C76.4132 19.7127 76.3596 19.78 76.301 19.8274H72.0619L72.0644 19.8249ZM74.533 16.7703C74.533 16.9149 74.5306 17.0608 74.533 17.2054C74.5517 18.0083 74.3747 18.0046 75.3646 17.9709C75.8758 17.9535 76.2274 17.6443 76.4232 17.173C76.5678 16.8239 76.4244 16.1906 76.1264 15.9275C75.7636 15.6071 75.3148 15.5759 74.8572 15.5859C74.6266 15.5909 74.5181 15.6906 74.5293 15.9312C74.5405 16.2105 74.5318 16.491 74.5318 16.7703H74.533Z" fill="#0076BE"/>
<path d="M31.1708 19.8249C31.1048 19.7663 31.0387 19.7077 30.9776 19.6541C31.1708 19.1018 31.3604 18.5495 31.5549 17.9996C31.7843 17.3501 32.0199 16.703 32.2493 16.0534C32.4363 15.5236 32.6134 14.9899 32.8029 14.4613C32.9986 13.9152 33.2093 13.3741 33.4013 12.8268C33.5821 12.3131 33.7492 11.7945 33.9212 11.2771C33.9686 11.1362 33.9923 10.9828 34.0646 10.8581C34.1033 10.7921 34.2242 10.7409 34.3077 10.7397C34.9411 10.7297 35.5744 10.7347 36.2465 10.7347C36.5058 11.4715 36.7614 12.2146 37.0282 12.9552C37.305 13.7232 37.6029 14.485 37.8735 15.2555C38.1852 16.1457 38.4707 17.0459 38.7799 17.9361C38.9582 18.4497 39.1651 18.9522 39.3484 19.4633C39.3883 19.5756 39.3833 19.704 39.3983 19.8249H38.8996C38.7874 19.7925 38.6764 19.7339 38.563 19.7314C38.0032 19.7214 37.4421 19.7376 36.8836 19.7164C36.7701 19.7127 36.5918 19.6117 36.5606 19.517C36.4023 19.0394 36.2901 18.5457 36.1492 18.062C35.9061 17.2304 35.658 16.3988 35.4036 15.5709C35.3301 15.3328 35.2278 15.1034 35.1393 14.8702C35.1106 14.8765 35.0807 14.8815 35.052 14.8877C34.9523 15.2867 34.8613 15.6881 34.7491 16.0834C34.6007 16.6082 34.4262 17.1244 34.2815 17.6493C34.1369 18.1742 34.0434 18.714 33.8689 19.2277C33.799 19.4309 33.819 19.7239 33.5397 19.8249H32.9163C32.8453 19.7925 32.7767 19.7351 32.7044 19.7326C32.3877 19.7227 32.0698 19.7214 31.7518 19.7314C31.682 19.7339 31.6135 19.7925 31.5449 19.8249H31.1708Z" fill="#0076BE"/>
<path d="M50.246 19.8249C50.0527 19.7339 49.8607 19.6404 49.6662 19.5519C49.099 19.295 48.6426 18.916 48.225 18.4447C47.8522 18.0246 47.6752 17.5259 47.4482 17.0446C47.3385 16.8127 47.331 16.5322 47.2824 16.2716C47.2363 16.021 47.1652 15.7692 47.159 15.5161C47.1403 14.7069 47.3111 13.9314 47.5904 13.1697C47.8347 12.5039 48.2 11.9329 48.7411 11.479C49.1663 11.1225 49.6513 10.8906 50.1886 10.7322C50.8843 10.5265 51.585 10.6038 52.282 10.6337C52.5899 10.6474 52.8979 10.8133 53.1934 10.9379C53.4003 11.0252 53.5873 11.1599 53.8105 11.2883C53.5537 11.863 53.2943 12.444 53.0225 13.0537C52.7906 12.9714 52.5575 12.8779 52.3169 12.8056C51.1412 12.454 50.4068 12.8879 50.0041 13.8865C49.8321 14.3129 49.7273 14.8117 49.7585 15.2667C49.8071 15.9874 49.8782 16.7342 50.4629 17.2927C50.7198 17.5383 50.9953 17.7129 51.3519 17.7216C51.6523 17.7291 51.9591 17.7465 52.252 17.6929C52.5276 17.6431 52.7869 17.5059 53.0575 17.4049C53.2819 17.9273 53.4988 18.446 53.7295 18.9584C53.808 19.1342 53.7906 19.2427 53.6048 19.315C53.2968 19.4347 52.9889 19.5569 52.6847 19.6853C52.6136 19.7152 52.5563 19.7763 52.4927 19.8224H50.2485L50.246 19.8249Z" fill="#0076BE"/>
<path d="M18.8274 19.8249C18.7887 19.6803 18.7189 19.5369 18.7177 19.3923C18.7114 17.3688 18.7139 15.344 18.7139 13.3205C18.7139 12.9066 18.6765 12.8692 18.2526 12.8667C17.7439 12.8629 17.2352 12.8617 16.7278 12.858C16.6979 12.858 16.6692 12.8417 16.6156 12.8268V10.7484C16.7079 10.7434 16.7877 10.7347 16.8687 10.7347C18.9757 10.7347 21.0828 10.7397 23.1898 10.7285C23.4791 10.7272 23.5663 10.8132 23.5539 11.0988C23.5314 11.575 23.5364 12.0538 23.5539 12.5313C23.5639 12.7969 23.4541 12.8779 23.206 12.8717C22.7397 12.8604 22.271 12.8816 21.8047 12.8604C21.5216 12.848 21.4256 12.9303 21.4281 13.2257C21.4394 15.2493 21.4294 17.274 21.4394 19.2975C21.4394 19.5294 21.4144 19.7115 21.1962 19.8237H18.8274V19.8249Z" fill="#0076BE"/>
<path d="M13.2193 5.92091C12.48 5.92091 11.7756 5.91593 11.0712 5.92465C10.8642 5.92715 10.8393 6.08424 10.8393 6.25629C10.8418 7.17018 10.8405 8.08406 10.8393 8.99794C10.8393 9.30548 10.6888 9.45966 10.3879 9.46049C9.78574 9.46049 9.1823 9.44927 8.58136 9.46424C8.32702 9.47047 8.24224 9.39816 8.24348 9.13259C8.25346 6.40092 8.24847 3.66925 8.25096 0.937572C8.25096 0.275536 8.25844 0.27429 8.92422 0.273043C9.46407 0.273043 10.0052 0.284264 10.5438 0.266809C10.7832 0.259328 10.8442 0.344109 10.8418 0.571021C10.8318 1.49488 10.8467 2.41998 10.8355 3.34384C10.8318 3.63184 10.9191 3.76151 11.227 3.75029C11.7669 3.73283 12.3067 3.73532 12.8466 3.75029C13.1333 3.75777 13.253 3.67299 13.2468 3.36005C13.2268 2.42622 13.243 1.49114 13.2331 0.55606C13.2306 0.345356 13.2867 0.263069 13.5111 0.268056C14.228 0.280524 14.9449 0.27803 15.6605 0.269303C15.86 0.266809 15.9336 0.325407 15.9336 0.533618C15.9286 3.42114 15.9286 6.30866 15.9348 9.19618C15.9348 9.40688 15.8525 9.46424 15.6593 9.46299C14.9424 9.45675 14.2255 9.45301 13.5098 9.46548C13.2792 9.46922 13.2343 9.37447 13.2356 9.16875C13.243 8.2025 13.2393 7.2375 13.238 6.27126C13.238 6.18024 13.2281 6.08923 13.2181 5.92091H13.2193Z" fill="#E40520"/>
<path d="M37.0553 0.274318C37.9243 0.274318 38.7522 0.270578 39.58 0.283046C39.6374 0.283046 39.7296 0.41271 39.7396 0.490009C39.7633 0.673285 39.7471 0.862794 39.7471 1.04981C39.7471 3.72912 39.7421 6.40843 39.7533 9.08774C39.7546 9.39444 39.6611 9.47673 39.3618 9.46676C38.7085 9.44556 38.054 9.44806 37.3994 9.46676C37.1189 9.47424 37.0441 9.3745 37.0478 9.10769C37.0615 8.16264 37.0428 7.21758 37.0615 6.27253C37.0678 5.97829 36.9331 5.87855 36.6825 5.87606C36.1639 5.86982 35.644 5.86359 35.1253 5.87855C34.7413 5.88853 34.659 5.98951 34.659 6.36978C34.659 7.29364 34.6528 8.21874 34.664 9.1426C34.6665 9.38073 34.6091 9.4705 34.3523 9.46426C33.6878 9.44681 33.0233 9.45304 32.3587 9.46551C32.1281 9.46925 32.0508 9.39195 32.052 9.1613C32.057 6.285 32.0558 3.40745 32.052 0.531153C32.052 0.324189 32.1243 0.265591 32.3251 0.269331C32.9996 0.280552 33.6753 0.284292 34.3498 0.271825C34.6004 0.266838 34.6702 0.355358 34.6665 0.597232C34.654 1.50114 34.659 2.4038 34.6628 3.30771C34.6628 3.67675 34.7338 3.74533 35.0979 3.74657C35.6165 3.74907 36.1364 3.74782 36.6551 3.74657C37.0553 3.74657 37.0578 3.73785 37.0566 3.34885C37.0553 2.34271 37.0566 1.33657 37.0566 0.274318H37.0553Z" fill="#E40520"/>
<path d="M71.0507 19.6865C70.2204 19.6865 69.4524 19.6928 68.6856 19.6766C68.6133 19.6753 68.4948 19.5394 68.4824 19.4546C68.4512 19.2302 68.4724 18.9983 68.4637 18.7702C68.4275 17.8613 68.3876 16.9524 68.3465 16.0435C68.344 15.9861 68.319 15.93 68.2816 15.7816C68.0635 16.1071 67.8852 16.3676 67.7119 16.6319C67.3802 17.1344 67.0536 17.6393 66.7207 18.1405C66.5374 18.4161 66.1783 18.3986 66.0001 18.1206C65.5188 17.3663 65.0313 16.6157 64.5476 15.8627C64.5127 15.8627 64.4777 15.8627 64.4428 15.8627C64.4104 16.0198 64.3506 16.1769 64.3481 16.334C64.3306 17.3513 64.3169 18.3687 64.3231 19.3861C64.3244 19.6416 64.2434 19.6965 64.0015 19.6903C63.2771 19.6741 62.5515 19.684 61.867 19.684C61.867 18.623 61.8508 17.5895 61.872 16.5571C61.8932 15.4924 61.9406 14.4289 61.9954 13.3654C62.0391 12.5101 62.1114 11.6561 62.1712 10.7908C62.3857 10.7434 62.6313 10.6799 62.8806 10.6387C62.9392 10.6287 63.034 10.6824 63.0714 10.7347C63.8481 11.8207 64.6236 12.9078 65.3891 14.0013C65.6796 14.4164 65.9489 14.8478 66.2257 15.273C66.3753 15.5036 66.4576 15.5024 66.616 15.2717C67.5311 13.9314 68.4487 12.5912 69.3651 11.2509C69.5022 11.0489 69.6356 10.8444 69.7678 10.6462C70.0408 10.6911 70.3126 10.736 70.6792 10.7958C70.6792 11.3008 70.6655 11.8419 70.6817 12.3817C70.7153 13.4776 70.764 14.5723 70.8088 15.6682C70.8487 16.6494 70.8837 17.6294 70.9335 18.6106C70.951 18.9559 71.0083 19.2988 71.052 19.6878L71.0507 19.6865Z" fill="#0076BE"/>
<path d="M48.2573 4.85744C48.2573 6.24884 48.2573 7.64023 48.2573 9.03163C48.2573 9.46426 48.2598 9.46426 47.8409 9.46301C47.2287 9.46301 46.6153 9.44556 46.0031 9.46924C45.7039 9.48046 45.6403 9.37449 45.6453 9.09895C45.6603 8.16512 45.6441 7.23004 45.654 6.29497C45.6565 6.04686 45.5905 5.94961 45.3236 5.94712C44.7975 5.94213 44.2714 5.88603 43.7452 5.86982C43.3101 5.85735 43.2478 5.9334 43.2478 6.37102C43.2478 7.2849 43.2415 8.19878 43.2553 9.11267C43.259 9.37574 43.1967 9.48046 42.9087 9.47049C42.2765 9.4468 41.6419 9.4468 41.0086 9.468C40.7181 9.47797 40.6358 9.38072 40.637 9.09895C40.6458 6.46079 40.6433 3.82387 40.6445 1.1857C40.6445 1.12336 40.647 1.06102 40.6458 0.998685C40.6441 0.514938 40.893 0.273064 41.3926 0.273064C41.9112 0.273064 42.4311 0.283038 42.9498 0.26683C43.1854 0.25935 43.2528 0.334156 43.2503 0.566055C43.2391 1.49989 43.254 2.43496 43.2415 3.37004C43.2378 3.6568 43.335 3.75654 43.6206 3.74781C44.1604 3.73161 44.7003 3.74532 45.2401 3.74158C45.6241 3.73909 45.6478 3.71041 45.6478 3.33513C45.6478 2.43122 45.6578 1.52856 45.6416 0.624654C45.6366 0.359091 45.6977 0.258103 45.9819 0.265584C46.6353 0.284285 47.2911 0.283038 47.9444 0.26309C48.2037 0.255609 48.2573 0.354104 48.2561 0.58725C48.2486 2.00982 48.2523 3.43238 48.2523 4.85495C48.2523 4.85495 48.2536 4.85495 48.2548 4.85495L48.2573 4.85744Z" fill="#E40520"/>
<path d="M21.5602 2.46982C21.5602 2.68551 21.5602 2.84884 21.5602 3.01341C21.5602 5.05936 21.5552 7.10407 21.5665 9.15002C21.5677 9.42181 21.4929 9.51033 21.2186 9.5041C20.5341 9.48789 19.8484 9.49039 19.1627 9.50659C18.9046 9.51283 18.8286 9.43303 18.8298 9.17246C18.8398 7.06542 18.836 4.95713 18.836 2.84884V2.47979C18.2064 2.47979 17.6067 2.46733 17.0083 2.48603C16.7539 2.49351 16.6891 2.40125 16.6928 2.16561C16.7041 1.54472 16.6966 0.923825 16.6966 0.281738H23.6536V2.46982H21.5577H21.5602Z" fill="#E40520"/>
</svg>
