<svg width="70" height="20" viewBox="0 0 70 20" fill="none" xmlns="http://www.w3.org/2000/svg">
<path d="M22.4021 9.3075C21.3437 9.60014 20.8137 9.74685 19.7545 9.98408V10.4055C19.9919 10.3688 20.1195 10.3321 20.3577 10.2775L21.3616 14.3416C21.4713 14.7997 21.8176 15.367 22.3094 15.367C22.4923 15.367 23.132 15.1469 23.3328 14.3783C23.1134 15.8789 22.9865 16.6484 22.346 17.4724C22.3655 17.4537 22.3834 17.3991 22.3834 17.3624C22.3834 16.5937 22.1273 16.0623 21.6526 16.0623C21.1048 16.0623 20.6121 16.703 20.6121 17.4896C20.6121 18.1131 21.0137 18.6617 21.5063 18.6617C22.5289 18.6617 23.2231 17.1603 23.4783 16.4096C24.2449 14.0474 24.1725 10.5139 24.2636 9.14129C24.4465 9.08666 24.5546 9.04998 24.7375 8.97663L24.7554 8.53729C24.0433 8.79325 23.6962 8.90328 22.9849 9.12334V9.5619C23.2402 9.4706 23.3678 9.43392 23.6239 9.36135C23.6052 10.5693 23.5694 11.4855 23.5328 12.18C23.4597 13.5722 23.3126 14.0295 23.0581 14.0295C22.9118 14.0295 22.7842 13.8273 22.6923 13.3888L21.9079 9.87405C22.1087 9.81942 22.1997 9.80069 22.4005 9.72734V9.30594L22.4021 9.3075ZM47.6166 10.2229C47.033 10.2229 46.5582 8.42804 46.5582 6.01204C46.5582 3.59605 47.1061 1.52653 47.8898 1.52653C48.2369 1.52653 48.6026 1.72787 48.6758 2.31392C48.0182 2.62528 47.8353 3.1926 47.8353 3.72403C47.8353 4.58398 48.2921 5.11463 48.8392 5.11463C49.3863 5.11463 49.8252 4.38265 49.8252 3.55859C49.8252 1.85585 48.8026 1.08719 47.9443 1.08719C45.6072 1.08719 44.9683 4.51063 44.9683 6.28673C44.9683 7.8615 45.5356 10.663 47.4882 10.663C48.5295 10.663 49.8797 9.2162 49.8797 6.92819L48.4011 7.03744C48.4011 8.9423 48.0361 10.2236 47.6158 10.2236M3.2312 12.5842C3.2312 13.5909 2.81174 14.3603 2.31834 14.3603C2.28176 14.3603 2.24519 14.3603 2.18993 14.3424V10.4976C2.77516 10.5896 3.23042 11.5229 3.23042 12.585M0.602348 10.2408V18.5899L0 18.4799V18.9379C0.857607 19.1026 1.31443 19.158 2.19071 19.3047C2.33702 19.3226 2.48332 19.3406 2.62885 19.3406C3.81643 19.3406 4.69193 18.5899 4.69193 17.1618C4.69193 16.0272 4.12616 15.2031 3.32303 14.7271C4.05301 14.4891 4.54563 13.8297 4.54563 12.7497C4.54563 10.9923 3.52381 10.3329 2.20939 10.0949L0 9.69144V10.1214L0.602348 10.2408ZM3.25066 16.9784C3.25066 18.0218 2.81174 18.8458 2.28254 18.8458H2.19071V14.7997C2.77594 14.891 3.2312 15.861 3.25066 16.9784ZM49.9894 1.52653L50.5926 1.48986V9.83815L49.9894 9.87483V10.3142C52.0891 10.1862 54.7359 10.4234 54.7359 7.67811C54.7359 6.54191 54.1709 5.77325 53.3304 5.44394C54.079 5.07795 54.5903 4.34519 54.5903 3.28312C54.5903 1.78249 53.5693 0.958431 52.3086 0.958431C51.3404 0.958431 50.9023 1.01384 49.9894 1.06846V1.52653ZM53.2572 7.69606C53.2572 8.81354 52.7825 9.72812 52.1801 9.74685V5.71941C52.8183 5.71941 53.2572 6.57936 53.2572 7.69684M53.2572 3.30263C53.2572 4.3647 52.7825 5.22466 52.1801 5.26212V1.4165C52.8183 1.4165 53.2572 2.24056 53.2572 3.30185M10.1146 11.2483H10.6983V19.4865H10.0959V19.9266C11.173 19.9266 11.7209 19.9266 12.7987 19.8705V19.4319C12.5606 19.4319 12.4695 19.4498 12.2322 19.4498V15.5691H12.5606L13.6019 19.3773L13.1458 19.4139V19.8533C14.8805 19.7253 16.6331 19.5599 18.4027 19.2306V18.7912C18.1296 18.8466 18.002 18.8646 17.728 18.9013V16.0459C19.0961 15.8259 20.1927 14.3986 20.1927 12.695C20.1927 11.1749 19.2977 10.2962 18.1483 10.2962C18.0206 10.2962 17.8922 10.3149 17.7646 10.3329C16.9249 10.4609 16.5046 10.5163 15.6463 10.6076V11.0469L16.2128 10.9736V19.1213C15.9941 19.158 15.8478 19.1759 15.1357 19.2493L14.2408 15.8625C14.0774 15.2219 13.6392 14.8925 13.219 14.8012L14.7529 11.1211L15.3007 11.0664V10.6263C14.5887 10.6997 14.2229 10.7176 13.5116 10.7543V11.1944L13.9855 11.1757L12.489 14.8012H12.233V11.2498H12.8174V10.7917C12.1785 10.8097 11.7403 10.8284 11.2469 10.8284C10.9178 10.8284 10.5535 10.8284 10.1154 10.8097V11.2498L10.1146 11.2483ZM18.7506 13.0236C18.7506 14.3603 18.2938 15.5137 17.7288 15.6058V10.773H17.8027C18.3311 10.773 18.7514 11.7243 18.7514 13.0244M10.0788 15.3686C10.0788 13.665 9.56831 10.5163 7.41417 10.5163C5.51452 10.5163 5.04058 13.5191 5.04058 15.0564C5.04058 16.7592 5.42425 20 7.68811 20C9.76987 20 10.0796 16.9238 10.0796 15.3678M8.52859 15.3124C8.52859 17.7104 8.1994 19.5591 7.56048 19.5591C6.92156 19.5591 6.61104 17.545 6.61104 15.2023C6.61104 12.8597 6.92233 10.9728 7.56048 10.9728C8.19863 10.9728 8.52859 12.9869 8.52859 15.3124ZM65.1983 1.87457L66.0015 1.96588L64.3781 10.1308L63.6652 10.0754V10.5147L65.5283 10.6794V10.24L64.9797 10.1854L65.2902 8.66605L67.4996 8.88533L67.7906 10.478L67.2801 10.4234V10.8628L70 11.1929V10.7527L69.3782 10.6622L67.663 1.67246C66.6762 1.56243 66.1836 1.5078 65.1976 1.43445V1.87379L65.1983 1.87457ZM60.743 10.3149C61.8566 10.3696 62.4224 10.4242 63.5368 10.5163V10.0582C63.2987 10.0582 63.1532 10.0395 62.9337 10.0215V1.67246L63.1345 1.69119L64.3578 3.85201L64.6318 3.86995L64.34 1.34315C62.5687 1.17849 60.834 1.08719 59.9212 1.06846L59.6293 3.55781L59.9033 3.57654L61.1267 1.54448H61.3461V9.89355C61.0909 9.89355 60.9811 9.87483 60.743 9.85766V10.3149ZM66.403 3.1013L67.354 8.09951L65.4536 7.91612L66.403 3.1013ZM24.9764 8.90484L25.5056 8.70272V16.9051L24.9212 17.1064V17.5458C26.0535 17.161 26.6193 16.9605 27.7695 16.4845V16.0451L27.0753 16.319V8.06283C27.2948 7.97153 27.4411 7.91612 27.6605 7.80687L28.9197 9.80225L29.1757 9.67427L28.8645 6.80021C27.3127 7.56886 26.5274 7.89895 24.9757 8.46706V8.90562L24.9764 8.90484ZM58.3515 4.16259C58.1865 4.14542 58.0955 4.14542 57.9133 4.14542V5.09668C57.5849 5.09668 57.4207 5.07873 57.0915 5.07873V1.45318C57.3655 1.45318 57.5849 1.45318 57.8768 1.47113L59.027 3.53986L59.3204 3.55781L59.027 1.04973C58.0223 0.976379 57.0005 0.976379 55.9779 0.976379C55.6308 0.976379 55.265 0.976379 54.9187 0.995108V1.43445H55.5219V9.78352H54.9187V10.2229C56.325 10.2229 57.7126 10.2408 59.1001 10.3142L59.4286 7.31134C59.3204 7.31134 59.2644 7.31134 59.1546 7.29339L57.8581 9.8202L57.0915 9.78352V5.84739C57.4207 5.86534 57.5849 5.86534 57.9133 5.86534V6.8361C58.0955 6.8361 58.1865 6.8361 58.3702 6.85483L58.3515 4.16259Z" fill="#262626"/>
<path d="M43.0866 4.97338C42.6118 4.67295 42.071 4.4365 41.425 4.27184C40.6204 4.06582 39.9106 4.04007 39.7456 4.03851C39.7713 4.21956 39.7853 4.43572 39.755 4.623C39.7176 4.85165 39.6452 5.05532 39.5448 5.23871C39.9807 5.61094 41.8609 7.28403 42.7371 9.07183C43.4881 7.92939 43.6189 6.78538 43.594 6.0058C43.5916 5.76233 43.4803 5.22388 43.085 4.97416M38.5744 2.41848C39.0694 2.72439 39.4413 3.1411 39.6336 3.61166C41.6033 3.60775 43.0492 4.47473 43.4523 4.85087C43.4835 4.87584 43.5091 4.86101 43.4912 4.82746C42.7784 3.36194 41.8181 2.25773 40.2849 1.38139C40.2523 1.3611 40.1791 1.3135 40.0935 1.32988C39.9674 1.35485 39.7223 1.39933 39.4655 1.56087C39.0896 1.79732 38.6935 2.26085 38.5736 2.41848M36.5814 17.9781C36.5199 18.0241 36.5689 18.0413 36.6008 18.0374C38.8725 17.7705 40.8492 16.7896 42.2064 15.1196C42.2375 15.079 42.2126 15.0666 42.1869 15.0861C40.2632 16.5828 37.7254 16.7139 37.6997 16.7162C37.3907 17.3686 36.9386 17.7416 36.5806 17.9781M42.45 9.4667C42.2749 9.11944 42.0756 8.77296 41.8546 8.42648C41.0367 7.14513 39.6647 5.94727 39.2647 5.61172C38.9207 5.97068 38.4296 6.19855 37.8444 6.28283C37.8413 6.28283 37.839 6.28439 37.8359 6.28517C38.2063 8.01835 38.3977 9.82722 38.4226 11.5105C41.3285 11.1047 42.3496 9.61887 42.4507 9.4667M39.467 11.7992C38.8662 11.9514 38.4328 11.9966 38.4281 11.9974C38.4281 14.3322 38.2437 15.3592 37.8826 16.2808C37.8919 16.2808 37.9005 16.2785 37.9098 16.2785C40.0997 16.1099 41.6788 15.1321 42.4445 14.4392C42.6375 14.2651 43.0251 13.8726 43.134 13.278C43.1854 12.9994 43.2196 12.706 43.2196 12.4118C43.2196 11.569 43.029 10.7363 42.65 9.88575C41.6904 11.0664 40.376 11.569 39.467 11.7992ZM37.7285 5.82944C37.7331 5.82944 37.7386 5.82944 37.7433 5.82788C38.5666 5.70458 39.2281 5.2707 39.3246 4.48722C39.4538 3.4392 38.5853 2.55193 37.4187 2.2827C37.3409 2.26553 36.9495 2.18438 36.5183 2.24212C36.6537 2.50354 36.786 2.79072 36.9105 3.11223C37.239 3.96438 37.5067 4.88442 37.7277 5.82944M43.8842 5.73033C43.8726 5.7038 43.8414 5.69756 43.8469 5.73189C43.9379 6.32497 44.0072 7.82014 42.9263 9.49635C43.7403 11.4582 43.6025 12.7512 43.4516 13.2944C43.4438 13.3256 43.4679 13.3552 43.5045 13.2889C43.6282 13.0665 43.8088 12.6693 43.9465 12.276C44.3006 11.2654 44.5387 10.1893 44.5387 9.05467C44.5387 7.85447 44.3348 6.75495 43.885 5.73111M31.6777 15.0947C31.8528 14.2347 32.2474 12.7934 33.147 10.9681C34.5673 11.7539 36.4483 12.2424 38.4141 11.9997C38.418 11.9997 38.4242 11.999 38.4289 11.9982C38.4289 11.9038 38.4289 11.8125 38.4289 11.7141C38.4281 11.6478 38.4242 11.5784 38.4234 11.512C38.4125 11.5136 35.9634 11.9896 33.3681 10.5303C34.6171 8.0956 35.7432 6.4428 36.0638 5.98707C36.0654 5.98707 36.067 5.98863 36.067 5.98785C36.6732 6.27659 37.3316 6.35852 37.8335 6.28751C37.8351 6.28751 37.8359 6.28751 37.8366 6.28751C37.804 6.13378 37.765 5.98395 37.7292 5.83178C36.6421 5.98551 34.8584 5.12868 35.0475 3.54298C35.13 2.8508 35.7269 2.35606 36.5191 2.24446C36.4654 2.1399 36.4101 2.04001 36.3549 1.94481C35.8047 2.02987 35.3237 2.2671 34.9984 2.61045C34.8249 2.53164 33.8436 2.11024 32.414 1.97992C31.8661 1.92998 31.4085 1.94247 30.975 2.01738C31.0279 1.95807 32.084 1.01852 33.2109 0.641605C33.8677 0.422324 34.4124 0.341947 34.7463 0.302929C34.8226 0.300588 34.944 0.282639 35.0778 0.380965C35.4428 0.636923 35.8203 1.0193 36.3557 1.94403C36.4242 1.93388 37.1207 1.75908 38.1479 2.19764C38.8444 1.28774 39.4608 1.12309 39.7262 1.10826C39.8009 1.10358 39.7713 1.07002 39.734 1.05051C38.4771 0.389549 37 0.00170965 35.4879 0.00170965C35.3603 0.00170965 32.6443 -0.130951 30.6162 1.9409C30.5602 1.99787 30.5174 2.03377 30.4676 2.09229C28.9446 2.46531 28.4894 3.24723 28.4006 3.37287L28.4497 3.41422C28.8746 3.04043 29.5042 2.6682 30.1836 2.47389C28.7897 4.54419 29.5454 6.68862 29.5695 6.77367C29.8372 7.73664 30.719 9.42456 32.6778 10.6825C32.3167 11.4176 31.6443 12.8418 31.2451 14.8644C29.4621 13.8258 28.7166 12.8659 28.3991 12.4414V12.9096C29.0645 14.2043 31.1478 15.3108 31.1711 15.3233C31.1019 16.1879 31.1921 16.6429 31.2809 16.955C31.3509 17.0143 31.5493 17.1415 31.6645 17.1891C31.6194 16.9277 31.5283 16.241 31.6046 15.5527C34.2475 16.8583 36.3494 16.8185 37.702 16.7139C37.7627 16.5898 37.8444 16.3807 37.8849 16.2785C37.8779 16.2785 37.8717 16.28 37.8647 16.2808C35.9985 16.3791 34.0015 16.2496 31.6801 15.0915M30.6645 2.38103C30.9384 2.33577 31.2443 2.29207 31.5626 2.30065C33.4692 2.35059 34.5969 2.85393 34.7572 2.92962C34.6537 3.1091 34.586 3.30731 34.5626 3.51879C34.5362 3.74588 34.5463 3.95736 34.5774 4.15713C34.305 4.2336 33.4723 4.47707 32.4404 4.88832C31.3774 5.31128 30.2396 6.05496 29.9011 6.28283C29.6209 5.11853 29.7096 3.6655 30.6653 2.38103M30.0341 6.74636C30.1882 6.63165 30.5563 6.37179 31.1283 6.0495C32.0217 5.54539 33.4319 4.92032 34.4926 4.62144C34.5712 4.59959 34.6319 4.58164 34.6825 4.56604C34.8685 5.06625 35.2132 5.44472 35.6459 5.72721C35.2755 6.22742 33.8934 8.24231 32.8941 10.2439C31.6202 9.42534 30.3913 8.02069 30.0341 6.74636Z" fill="#262626"/>
</svg>
