<svg width="91" height="20" viewBox="0 0 91 20" fill="none" xmlns="http://www.w3.org/2000/svg">
<path d="M11.3979 13.7635C11.3248 13.7639 11.2534 13.7418 11.1933 13.7003C11.1335 13.659 11.0881 13.6002 11.0632 13.532L9.19162 8.17754L7.77822 12.2641C7.75373 12.3332 7.70827 12.3929 7.64817 12.435C7.60316 12.4664 7.55152 12.4871 7.49724 12.4954C7.44296 12.5037 7.38749 12.4995 7.33512 12.4829C7.28276 12.4664 7.23489 12.4381 7.19522 12.4001C7.15556 12.3622 7.12516 12.3156 7.10637 12.2641L6.75076 11.2367H6.5636C6.49053 11.2371 6.41909 11.2151 6.35901 11.1735C6.29922 11.1323 6.25377 11.0734 6.22897 11.0052L6.11183 10.6721L5.99953 10.9752C5.97471 11.0434 5.92926 11.1022 5.86949 11.1435C5.80941 11.1851 5.73798 11.2072 5.6649 11.2067H3.52157C3.47073 11.2149 3.41871 11.2121 3.36905 11.1985C3.31938 11.1849 3.27323 11.1607 3.23373 11.1277C3.19462 11.0948 3.16316 11.0537 3.14154 11.0074C3.11992 10.961 3.10865 10.9105 3.10852 10.8594C3.10848 10.8083 3.11967 10.7578 3.14131 10.7115C3.16295 10.6652 3.19449 10.6242 3.23373 10.5915C3.27317 10.5583 3.31931 10.5341 3.369 10.5205C3.41868 10.5068 3.47073 10.5041 3.52157 10.5125H5.42385L5.79624 9.51509C5.82076 9.44738 5.86562 9.38869 5.92531 9.34742C5.98498 9.30593 6.05592 9.28369 6.12861 9.28369C6.2013 9.28369 6.27224 9.30593 6.33191 9.34742C6.39096 9.38901 6.43614 9.44738 6.46066 9.51509L6.82789 10.5357H7.01505C7.0883 10.535 7.15962 10.5573 7.21964 10.5986C7.27966 10.6402 7.32516 10.6988 7.34968 10.7669L7.4552 11.0655L8.87764 6.9767C8.90241 6.90785 8.94784 6.84833 9.00773 6.80625C9.06763 6.76417 9.13905 6.74159 9.21227 6.74159C9.28548 6.74159 9.35691 6.76417 9.4168 6.80625C9.47669 6.84833 9.52213 6.90785 9.5469 6.9767L11.4188 12.3289L12.4018 9.50349C12.4269 9.43513 12.4728 9.37644 12.5331 9.33484C12.5936 9.29346 12.6653 9.27162 12.7387 9.27228C12.8115 9.2716 12.8828 9.29349 12.9428 9.33495C13.0027 9.3764 13.0483 9.4354 13.0733 9.50381L13.6161 11.0655L13.7216 10.7669C13.7464 10.6984 13.792 10.6393 13.8519 10.5978C13.9119 10.5564 13.9833 10.5347 14.0562 10.5357H16.3212C16.372 10.5275 16.4239 10.5303 16.4736 10.544C16.5232 10.5576 16.5693 10.5817 16.6087 10.6147C16.6479 10.6476 16.6794 10.6885 16.7012 10.7348C16.7229 10.7811 16.7343 10.8315 16.7346 10.8826C16.7346 10.9338 16.7233 10.9843 16.7015 11.0306C16.6798 11.0769 16.6481 11.1179 16.6087 11.1506C16.5693 11.1837 16.5233 11.2079 16.4736 11.2216C16.424 11.2352 16.372 11.238 16.3212 11.2296H14.3089L13.932 12.2641C13.9076 12.3331 13.8622 12.3928 13.8023 12.435C13.7572 12.4664 13.7056 12.4871 13.6513 12.4954C13.597 12.5037 13.5416 12.4995 13.4892 12.4829C13.4368 12.4664 13.389 12.4381 13.3493 12.4001C13.3096 12.3622 13.2792 12.3156 13.2605 12.2641L12.7177 10.7021L11.7419 13.5275C11.717 13.5979 11.6703 13.6587 11.6086 13.7009C11.547 13.7432 11.4731 13.7654 11.3979 13.7635Z" fill="#25B1D9"/>
<path d="M18.9421 4.73692C17.9942 3.22209 16.6335 2.00892 15.0198 1.23985C13.3276 0.413392 11.3891 0 9.20515 0H0L0.0161347 19.9902H9.20547C11.2139 20.0274 13.2038 19.6005 15.0201 18.7429C16.6342 17.9762 17.995 16.7638 18.9418 15.2491C19.8776 13.7448 20.3455 11.9932 20.3455 9.99397C20.3857 8.14399 19.8988 6.3207 18.9418 4.7366L18.9421 4.73692ZM13.7935 14.5203C12.6028 15.6354 10.9858 16.1978 8.97087 16.1978H6.33641L4.69841 18.2109V3.79728H8.97087C10.9903 3.79728 12.6073 4.35513 13.81 5.46761C15.0127 6.58074 15.6119 8.09178 15.6119 9.99397C15.6119 11.8962 15.0033 13.4069 13.8055 14.52L13.7935 14.5203Z" fill="#25B1D9"/>
<path d="M25.0829 4.40804H27.5751C28.1207 4.39768 28.6613 4.51344 29.1547 4.7463C29.5945 4.95398 29.965 5.28419 30.2215 5.69723C30.487 6.12479 30.6243 6.61939 30.6171 7.1225C30.6276 7.63014 30.4912 8.13 30.2241 8.56196C29.9676 8.97518 29.597 9.30552 29.1569 9.51321C28.6618 9.74219 28.1205 9.85376 27.5751 9.83921H25.0833V4.40836L25.0829 4.40804ZM27.5141 8.80477C27.9959 8.82602 28.4672 8.6602 28.8294 8.34204C28.9937 8.18325 29.1222 7.99134 29.2065 7.77906C29.2908 7.56679 29.3289 7.33902 29.3183 7.11089C29.3286 6.88362 29.2904 6.65675 29.2063 6.44534C29.1218 6.2332 28.9934 6.04133 28.8294 5.88232C28.4672 5.56419 27.9959 5.39838 27.5141 5.41959H26.3447V8.80735L27.5148 8.80477H27.5141ZM32.6782 9.56609C32.234 9.33721 31.8621 8.98945 31.6043 8.56163C31.35 8.12493 31.2161 7.6287 31.2161 7.12347C31.2161 6.61823 31.35 6.12201 31.6043 5.6853C31.8622 5.25761 32.234 4.90997 32.6782 4.68116C33.1553 4.44053 33.6822 4.31516 34.2166 4.31516C34.751 4.31516 35.278 4.44053 35.7551 4.68116C36.1993 4.91834 36.5711 5.27107 36.8312 5.70207C37.0901 6.13109 37.227 6.62251 37.2272 7.12347C37.227 7.62454 37.0901 8.11608 36.8312 8.54519C36.5711 8.97618 36.1993 9.32892 35.7551 9.56609C35.278 9.80676 34.751 9.93213 34.2166 9.93213C33.6822 9.93213 33.1552 9.80676 32.6782 9.56609ZM35.0977 8.64064C35.356 8.49532 35.569 8.28136 35.7131 8.02248C35.859 7.74522 35.9353 7.43671 35.9354 7.12347C35.9352 6.81023 35.859 6.50172 35.7131 6.22445C35.569 5.96569 35.356 5.75185 35.0977 5.60662C34.8274 5.46224 34.5256 5.3867 34.219 5.3867C33.9125 5.3867 33.6107 5.46224 33.3403 5.60662C33.0837 5.75248 32.8723 5.96627 32.7295 6.22445C32.5822 6.50125 32.5051 6.80996 32.5051 7.12347C32.5051 7.43697 32.5822 7.74568 32.7295 8.02248C32.8736 8.28133 33.0868 8.49519 33.3452 8.64031C33.6155 8.78475 33.9172 8.86032 34.2237 8.86032C34.5302 8.86032 34.832 8.78475 35.1022 8.64031L35.0977 8.64064ZM40.3454 7.65036H39.468V9.83921H38.2046V4.40836H39.468V6.60431H40.3783L41.822 4.40836H43.1628L41.3657 7.02995L43.2167 9.83921H41.7752L40.3454 7.65036ZM47.9412 5.43346H46.1839V9.82986H44.9296V5.43346H43.1815V4.40836H47.9412V5.43346ZM49.7406 9.56609C49.2972 9.33604 48.9257 8.98854 48.6667 8.56163C48.4122 8.12498 48.278 7.62876 48.2778 7.12347C48.278 6.61817 48.4122 6.12195 48.6667 5.6853C48.9257 5.25851 49.2972 4.91113 49.7406 4.68116C50.2181 4.44057 50.7455 4.31525 51.2803 4.31525C51.8151 4.31525 52.3425 4.44057 52.82 4.68116C53.2625 4.91262 53.6336 5.2598 53.894 5.68562C54.1511 6.12138 54.2868 6.61794 54.287 7.12379C54.2868 7.62964 54.1511 8.1262 53.894 8.56196C53.6336 8.98766 53.2624 9.33472 52.82 9.56609C52.3425 9.80671 51.8151 9.93205 51.2803 9.93205C50.7455 9.93205 50.2181 9.80671 49.7406 9.56609ZM52.1601 8.64064C52.4192 8.4955 52.6329 8.28155 52.7778 8.02248C52.9237 7.74532 53 7.43682 53 7.12363C53 6.81043 52.9237 6.50194 52.7778 6.22477C52.6341 5.96641 52.422 5.75263 52.1647 5.60694C51.8948 5.46254 51.5934 5.38698 51.2873 5.38698C50.9811 5.38698 50.6797 5.46254 50.4099 5.60694C50.151 5.75138 49.9378 5.96541 49.7945 6.22477C49.6469 6.50144 49.5698 6.81013 49.5698 7.12363C49.5698 7.43713 49.6469 7.74582 49.7945 8.02248C49.9378 8.28184 50.151 8.49588 50.4099 8.64031C50.6797 8.78474 50.9811 8.86032 51.2873 8.86032C51.5934 8.86032 51.8948 8.78474 52.1647 8.64031L52.1601 8.64064ZM58.8931 4.64892C59.1415 4.76666 59.3624 4.93517 59.5414 5.14357C59.8109 5.45527 59.9735 5.84492 60.0055 6.25557C60.0375 6.66622 59.9372 7.07632 59.7192 7.42593C59.5167 7.72719 59.2292 7.96154 58.8931 8.09923C58.4914 8.26444 58.0592 8.34321 57.625 8.33043H56.5204V9.82761H55.2499V4.40836H57.625C58.0599 4.39855 58.492 4.48052 58.8931 4.64892ZM58.4252 7.07381C58.5253 6.98895 58.6044 6.88215 58.6563 6.76172C58.7083 6.6413 58.7317 6.51051 58.7247 6.37955C58.731 6.24873 58.7073 6.11819 58.6554 5.99792C58.6035 5.87764 58.5248 5.77082 58.4252 5.68562C58.1715 5.50723 57.8641 5.42149 57.5546 5.44281H56.5204V7.32629H57.5546C57.8652 7.34493 58.1727 7.25554 58.4252 7.07381ZM68.1573 4.40836V9.83921H66.8959V5.44313H64.418V9.83954H63.1521V4.40836H68.1573ZM69.5185 4.40836H70.7818V7.94638L73.4027 4.40836H74.5938V9.83921H73.3395V6.31055L70.7189 9.83921H69.5185V4.40836ZM80.1606 5.43346H78.4032V9.82986H77.1466V5.43346H75.3986V4.40836H80.1606V5.43346ZM85.2104 8.83024V9.83954H80.9589V4.40804H85.1075V5.41734H82.2222V6.59754H84.7706V7.57394H82.2222V8.83024H85.2104ZM89.8817 4.64924C90.1301 4.76695 90.351 4.93534 90.5303 5.14357C90.7997 5.4553 90.9623 5.84498 90.9942 6.25562C91.0261 6.66627 90.9258 7.07636 90.7078 7.42593C90.5053 7.72719 90.2177 7.96154 89.8817 8.09923C89.4799 8.26458 89.0478 8.34346 88.6135 8.33075H87.5093V9.82761H86.2385V4.40836H88.6135C89.0485 4.39858 89.4807 4.48066 89.8817 4.64924ZM89.4138 7.07413C89.5137 6.98912 89.5926 6.88228 89.6445 6.7619C89.6965 6.64151 89.72 6.5108 89.7133 6.37988C89.7197 6.24933 89.6961 6.11905 89.6442 5.99905C89.5921 5.8786 89.5133 5.77154 89.4138 5.68595C89.1602 5.50746 88.8529 5.42161 88.5435 5.44281H87.5093V7.32629H88.5435C88.854 7.34488 89.1614 7.25581 89.4138 7.07413ZM26.093 14.9366H25.6528V15.8231H25.2688V13.7239H25.6528V14.61H26.102L26.79 13.7239H27.2043L26.4015 14.7329L27.2627 15.8228H26.811L26.093 14.9366ZM29.8588 13.7245L28.8294 16.0385C28.7654 16.2146 28.6556 16.3704 28.5112 16.4899C28.3823 16.5789 28.2281 16.6242 28.0714 16.6189C27.9688 16.6192 27.8668 16.6028 27.7694 16.5705C27.6814 16.5413 27.6013 16.4922 27.5354 16.427L27.6993 16.1401C27.7489 16.1899 27.808 16.2292 27.8731 16.2559C27.9381 16.2825 28.0079 16.2959 28.0782 16.2952C28.1627 16.2994 28.246 16.2729 28.3121 16.221C28.3889 16.153 28.4477 16.0672 28.4832 15.9714L28.5509 15.8231L27.6151 13.7406H28.0153L28.7545 15.4207L29.4893 13.7406L29.8588 13.7245ZM32.3355 13.84C32.4955 13.927 32.6278 14.057 32.7169 14.215C32.8074 14.3878 32.8547 14.5799 32.8547 14.7749C32.8547 14.97 32.8074 15.1621 32.7169 15.3349C32.6276 15.4938 32.4954 15.6245 32.3355 15.7122C32.1651 15.8036 31.9741 15.8498 31.7808 15.8463C31.6374 15.8483 31.4953 15.819 31.3645 15.7605C31.238 15.703 31.1273 15.6157 31.0418 15.5061V16.5912H30.6578V13.7245H31.025V14.0576C31.1063 13.9448 31.2151 13.8545 31.3413 13.7938C31.4761 13.7326 31.623 13.7019 31.7714 13.7036C31.9681 13.6992 32.1625 13.7462 32.3355 13.84ZM32.1154 15.4203C32.2242 15.3593 32.3134 15.2687 32.3729 15.1591C32.4342 15.0399 32.4661 14.9078 32.4661 14.7738C32.4661 14.6398 32.4342 14.5077 32.3729 14.3885C32.3134 14.2794 32.2241 14.1895 32.1154 14.1292C32.0044 14.0659 31.8782 14.034 31.7504 14.0367C31.6236 14.0356 31.4986 14.0675 31.3877 14.1292C31.2799 14.1921 31.1909 14.2824 31.1305 14.3907C31.0669 14.5086 31.0347 14.6408 31.037 14.7748C31.0337 14.9089 31.066 15.0411 31.1305 15.1591C31.1873 15.2691 31.2761 15.3604 31.3855 15.4203C31.4966 15.4836 31.6225 15.5164 31.7504 15.5155C31.8784 15.5175 32.0046 15.4844 32.1154 15.4203ZM34.1248 15.7073C33.9595 15.6192 33.8219 15.4871 33.7273 15.3255C33.6322 15.1571 33.5823 14.967 33.5823 14.7736C33.5823 14.5803 33.6322 14.3902 33.7273 14.2218C33.822 14.061 33.9597 13.9297 34.1248 13.8425C34.3034 13.7479 34.5032 13.7001 34.7053 13.7036C34.8829 13.7007 35.0587 13.7404 35.2178 13.8193C35.3662 13.8922 35.4888 14.0086 35.5685 14.1524L35.2949 14.3469C35.2347 14.2486 35.149 14.1686 35.0467 14.1153C34.9453 14.0639 34.833 14.0377 34.7192 14.0389C34.5885 14.0362 34.4593 14.0682 34.3449 14.1315C34.2339 14.1903 34.1428 14.2804 34.0829 14.3907C34.0193 14.5095 33.987 14.6426 33.9893 14.7773C33.9873 14.9125 34.0193 15.046 34.0829 15.1659C34.1426 15.2759 34.2336 15.3658 34.3449 15.4252C34.4591 15.4884 34.5885 15.5203 34.7192 15.5177C34.8331 15.519 34.9454 15.4926 35.0467 15.4413C35.1487 15.3871 35.2342 15.3075 35.2949 15.2098L35.5873 15.3903C35.5065 15.5346 35.3843 15.6514 35.2365 15.7257C35.0778 15.8058 34.9018 15.8457 34.7241 15.8418C34.516 15.8499 34.3094 15.8035 34.1248 15.7073ZM39.4509 14.9089C39.5286 14.9918 39.5699 15.1014 39.5654 15.2143C39.5666 15.3364 39.5206 15.4542 39.437 15.5432C39.3421 15.6496 39.2201 15.7296 39.0836 15.7744C38.9202 15.83 38.7484 15.8572 38.5757 15.855C38.4178 15.8555 38.2605 15.8353 38.1078 15.795C37.9652 15.7572 37.8294 15.6971 37.7054 15.617L37.8222 15.3278C37.9297 15.3942 38.0465 15.4452 38.1685 15.4781C38.2982 15.513 38.432 15.5308 38.5664 15.5313C38.7164 15.5377 38.8655 15.5055 38.9994 15.4387C39.0481 15.4168 39.0893 15.3814 39.1184 15.3367C39.1474 15.292 39.1629 15.2398 39.163 15.1865C39.1647 15.1396 39.1534 15.0932 39.1302 15.0523C39.1071 15.0114 39.0731 14.9778 39.032 14.955C38.9196 14.8967 38.7935 14.8695 38.667 14.8763H38.2856V14.6035H38.6461C38.764 14.6097 38.8814 14.5833 38.9852 14.5271C39.0228 14.5075 39.0543 14.4778 39.0761 14.4415C39.098 14.4051 39.1094 14.3635 39.1091 14.3211C39.1129 14.2721 39.1009 14.2232 39.0748 14.1816C39.0487 14.14 39.01 14.1079 38.9642 14.0899C38.8411 14.0306 38.7052 14.0027 38.5686 14.0086C38.3363 14.0143 38.1081 14.0704 37.8997 14.1731L37.7967 13.8838C38.0482 13.7557 38.3264 13.6891 38.6086 13.6894C38.7677 13.6861 38.9262 13.7103 39.0765 13.7613C39.1995 13.799 39.3102 13.8687 39.397 13.9625C39.4718 14.0434 39.5135 14.1489 39.5141 14.2588C39.5146 14.3611 39.4771 14.4599 39.4089 14.5361C39.3337 14.6225 39.2368 14.6873 39.1282 14.7238C39.2512 14.7534 39.3632 14.8176 39.4509 14.9089ZM42.7072 15.49V16.3113H42.3467V15.8231H40.5732V16.3113H40.2082V15.49H40.3205C40.4561 15.49 40.5496 15.3952 40.6013 15.2053C40.6606 14.9515 40.6952 14.6925 40.7042 14.4323L40.7368 13.7245H42.3748V15.49H42.7072ZM40.9898 15.1175C40.9722 15.2581 40.9088 15.389 40.8094 15.49H41.9982V14.0576H41.0763L41.0576 14.46C41.0511 14.6806 41.0285 14.9005 40.9898 15.1175ZM43.9541 15.7076C43.7895 15.6202 43.6532 15.4877 43.561 15.3259C43.4682 15.1567 43.4195 14.9669 43.4195 14.774C43.4195 14.581 43.4682 14.3912 43.561 14.2221C43.6533 14.0608 43.7896 13.9292 43.9541 13.8425C44.1296 13.7512 44.3247 13.7035 44.5226 13.7035C44.7206 13.7035 44.9156 13.7512 45.0912 13.8425C45.2548 13.9302 45.3904 14.0618 45.482 14.2221C45.5748 14.3912 45.6235 14.581 45.6235 14.774C45.6235 14.9669 45.5748 15.1567 45.482 15.3259C45.3899 15.4871 45.2546 15.6193 45.0912 15.7076C44.9156 15.799 44.7206 15.8467 44.5226 15.8467C44.3247 15.8467 44.1296 15.799 43.9541 15.7076ZM44.8902 15.4207C44.9983 15.3591 45.0867 15.2681 45.1451 15.1591C45.2051 15.0395 45.2363 14.9076 45.2363 14.7738C45.2363 14.64 45.2051 14.5081 45.1451 14.3885C45.0864 14.2797 44.998 14.1899 44.8902 14.1295C44.7777 14.0688 44.6518 14.0369 44.5239 14.0369C44.396 14.0369 44.2702 14.0688 44.1577 14.1295C44.049 14.1897 43.9597 14.2795 43.9002 14.3885C43.8389 14.5077 43.8069 14.6398 43.8069 14.7738C43.8069 14.9078 43.8389 15.0399 43.9002 15.1591C43.9595 15.2685 44.0486 15.3591 44.1577 15.4203C44.2696 15.4827 44.3957 15.5155 44.5239 15.5155C44.6521 15.5155 44.7782 15.4831 44.8902 15.4207ZM48.243 13.84C48.4077 13.9248 48.5448 14.0547 48.6383 14.2147C48.7289 14.3875 48.7762 14.5797 48.7762 14.7748C48.7762 14.9699 48.7289 15.1621 48.6383 15.3349C48.5481 15.4939 48.4152 15.6246 48.2546 15.7122C48.0852 15.8038 47.895 15.85 47.7025 15.8463C47.5583 15.8483 47.4154 15.8191 47.2836 15.7605C47.1573 15.7023 47.0466 15.615 46.9606 15.5058V16.5912H46.5769V13.7245H46.9467V14.0573C47.0294 13.9427 47.1406 13.8518 47.2694 13.7935C47.4053 13.7323 47.5531 13.7016 47.7025 13.7032C47.8913 13.7023 48.0773 13.7493 48.243 13.84ZM48.0252 15.4203C48.1339 15.3593 48.2232 15.2687 48.2827 15.1591C48.3439 15.0399 48.3758 14.9078 48.3758 14.7738C48.3758 14.6398 48.3439 14.5077 48.2827 14.3885C48.2231 14.2794 48.1338 14.1895 48.0252 14.1292C47.9134 14.0655 47.7865 14.0335 47.6579 14.0367C47.5318 14.0357 47.4075 14.0676 47.2975 14.1292C47.1893 14.1909 47.1003 14.2813 47.0403 14.3904C46.9754 14.5079 46.9431 14.6406 46.9467 14.7748C46.9441 14.9083 46.9754 15.0405 47.0377 15.1588C47.0958 15.2694 47.1852 15.3604 47.2952 15.4203C47.4067 15.4827 47.5324 15.5154 47.6602 15.5154C47.788 15.5154 47.9136 15.4827 48.0252 15.4203ZM50.0759 15.7076C49.9113 15.6201 49.7749 15.4877 49.6825 15.3259C49.5897 15.1567 49.541 14.9669 49.541 14.774C49.541 14.581 49.5897 14.3912 49.6825 14.2221C49.775 14.0609 49.9114 13.9293 50.0759 13.8425C50.2515 13.7512 50.4465 13.7035 50.6445 13.7035C50.8424 13.7035 51.0374 13.7512 51.213 13.8425C51.3766 13.9302 51.5119 14.0618 51.6038 14.2221C51.6966 14.3912 51.7453 14.581 51.7453 14.774C51.7453 14.9669 51.6966 15.1567 51.6038 15.3259C51.5117 15.487 51.3763 15.6192 51.213 15.7076C51.0375 15.799 50.8424 15.8467 50.6445 15.8467C50.4465 15.8467 50.2514 15.799 50.0759 15.7076ZM51.0117 15.4207C51.1201 15.3591 51.2085 15.2681 51.2669 15.1591C51.3269 15.0395 51.3582 14.9076 51.3582 14.7738C51.3582 14.64 51.3269 14.5081 51.2669 14.3885C51.2081 14.2797 51.1196 14.1899 51.0117 14.1295C50.8992 14.0687 50.7734 14.0369 50.6456 14.0369C50.5177 14.0369 50.3919 14.0687 50.2795 14.1295C50.1704 14.1892 50.081 14.2791 50.022 14.3885C49.9607 14.5077 49.9288 14.6398 49.9288 14.7738C49.9288 14.9078 49.9607 15.0399 50.022 15.1591C50.0807 15.2688 50.1698 15.3597 50.2795 15.4203C50.3914 15.4827 50.5174 15.5154 50.6456 15.5154C50.7737 15.5154 50.8997 15.483 51.0117 15.4207ZM54.5513 15.2446C54.5556 15.3279 54.5385 15.4109 54.5017 15.4858C54.4649 15.5607 54.4095 15.625 54.3409 15.6725C54.1521 15.7853 53.9334 15.8378 53.7139 15.8231H52.6936V13.7239H53.6787C53.8849 13.7123 54.0899 13.7614 54.2683 13.8651C54.3344 13.9081 54.3884 13.9672 54.4252 14.0368C54.4621 14.1064 54.4806 14.1843 54.479 14.263C54.4813 14.3656 54.45 14.4662 54.39 14.55C54.3254 14.6329 54.2389 14.6964 54.1395 14.7329C54.2602 14.7522 54.3693 14.8151 54.4455 14.9099C54.5216 15.0044 54.5594 15.124 54.5513 15.2446ZM53.0701 14.6268H53.6458C53.763 14.6348 53.8798 14.6074 53.9805 14.5481C54.018 14.5228 54.0484 14.4881 54.0685 14.4475C54.0886 14.4069 54.0977 14.3618 54.095 14.3166C54.095 14.1153 53.9453 14.0157 53.6458 14.0157H53.0701V14.6268ZM54.0482 15.4552C54.0869 15.4307 54.1184 15.3963 54.1394 15.3556C54.1604 15.3149 54.1701 15.2693 54.1676 15.2236C54.1698 15.179 54.1609 15.1344 54.1417 15.094C54.1225 15.0536 54.0936 15.0186 54.0576 14.9921C53.953 14.9308 53.8323 14.9027 53.7113 14.9115H53.0701V15.5406H53.6858C53.8123 15.5458 53.9379 15.5161 54.0482 15.4552ZM55.905 15.7076C55.7397 15.6202 55.6026 15.4878 55.5094 15.3259C55.4166 15.1567 55.3679 14.9669 55.3679 14.774C55.3679 14.581 55.4166 14.3912 55.5094 14.2221C55.6023 14.0608 55.7395 13.9293 55.905 13.8425C56.0801 13.7512 56.2748 13.7035 56.4723 13.7035C56.6698 13.7035 56.8645 13.7512 57.0396 13.8425C57.2035 13.9309 57.3397 14.0618 57.4329 14.2221C57.5258 14.3912 57.5744 14.581 57.5744 14.774C57.5744 14.9669 57.5258 15.1567 57.4329 15.3259C57.3392 15.4867 57.2032 15.6187 57.0396 15.7076C56.8645 15.799 56.6698 15.8467 56.4723 15.8467C56.2748 15.8467 56.0801 15.799 55.905 15.7076ZM56.8408 15.4207C56.9496 15.3594 57.0383 15.2691 57.0957 15.1591C57.1557 15.0395 57.1869 14.9076 57.1869 14.7738C57.1869 14.64 57.1557 14.5081 57.0957 14.3885C57.0378 14.2792 56.9492 14.1893 56.8408 14.1295C56.7283 14.0687 56.6024 14.0368 56.4745 14.0368C56.3466 14.0368 56.2208 14.0687 56.1083 14.1295C55.9997 14.1897 55.9105 14.2795 55.8511 14.3885C55.7895 14.5076 55.7574 14.6397 55.7574 14.7738C55.7574 14.9079 55.7895 15.04 55.8511 15.1591C55.9102 15.2685 55.9995 15.3591 56.1083 15.4203C56.2203 15.4826 56.3464 15.5152 56.4745 15.5152C56.6027 15.5152 56.7288 15.4829 56.8408 15.4207ZM58.5204 13.7242H58.9064V15.2539L60.2075 13.7242H60.556V15.8231H60.17V14.2937L58.8738 15.8231H58.5204V13.7242ZM59.0538 13.3102C58.9976 13.2593 58.9532 13.1966 58.9241 13.1266C58.895 13.0565 58.8818 12.9809 58.8854 12.9052H59.1452C59.1456 12.9487 59.155 12.9917 59.1727 13.0316C59.1904 13.0714 59.216 13.1071 59.2481 13.1367C59.321 13.1976 59.4146 13.2289 59.5101 13.2244C59.6063 13.2286 59.7005 13.1973 59.7744 13.1367C59.8065 13.1071 59.8321 13.0714 59.8498 13.0316C59.8676 12.9917 59.8769 12.9487 59.8774 12.9052H60.1465C60.1497 12.9811 60.1361 13.0568 60.1066 13.1268C60.0771 13.1968 60.0324 13.2594 59.9758 13.3102C59.8415 13.4111 59.6757 13.4611 59.5079 13.4514C59.3445 13.4603 59.1833 13.4102 59.0538 13.3102ZM65.1156 14.937H64.7016V15.8231H64.3273V14.937H63.9059L63.3211 15.8231H62.8645L63.5925 14.738L62.9233 13.7245H63.3302L63.9036 14.6106H64.3273V13.7245H64.711V14.6106H65.1273L65.7007 13.7245H66.1124L65.4409 14.7425L66.1686 15.8231H65.7123L65.1156 14.937ZM66.9734 13.7242H67.3571V15.2536L68.6582 13.7242H69.0067V15.8231H68.623V14.2933L67.3245 15.8231H66.9734V13.7242ZM71.6027 14.9086C71.6808 14.9911 71.7228 15.1011 71.7196 15.2143C71.7196 15.3358 71.6737 15.4529 71.5908 15.5429C71.4943 15.6494 71.3718 15.7291 71.2352 15.7741C71.0726 15.8298 70.9017 15.8572 70.7299 15.855C70.572 15.8553 70.4147 15.8351 70.2619 15.795C70.1194 15.7566 69.9835 15.6964 69.8592 15.6167L69.9764 15.3275C70.0841 15.3945 70.2019 15.4452 70.3249 15.4781C70.4539 15.5129 70.5869 15.5306 70.7205 15.5313C70.8712 15.5377 71.0209 15.5055 71.1558 15.4387C71.2038 15.4162 71.2444 15.3805 71.2729 15.3359C71.3015 15.2913 71.3168 15.2395 71.3172 15.1865C71.3194 15.1398 71.3085 15.0934 71.2858 15.0525C71.263 15.0116 71.2293 14.9778 71.1884 14.955C71.0753 14.8962 70.9484 14.8691 70.8212 14.8763H70.4327V14.6032H70.7931C70.9109 14.6093 71.0283 14.5829 71.1323 14.5268C71.1698 14.5072 71.2013 14.4776 71.2231 14.4413C71.245 14.405 71.2564 14.3634 71.2562 14.3211C71.2597 14.2721 71.2476 14.2233 71.2215 14.1817C71.1955 14.1401 71.1569 14.1078 71.1113 14.0895C70.9881 14.0304 70.8522 14.0026 70.7157 14.0086C70.4841 14.0141 70.2565 14.0702 70.049 14.1731L69.9389 13.8835C70.1913 13.7558 70.4702 13.6893 70.7531 13.6894C70.9122 13.6855 71.0706 13.7097 71.2213 13.761C71.3443 13.7984 71.4553 13.868 71.5417 13.9622C71.6166 14.0431 71.6582 14.1489 71.6589 14.2585C71.6595 14.3607 71.6221 14.4597 71.5534 14.5361C71.4791 14.6225 71.3829 14.6873 71.2749 14.7235C71.4001 14.7525 71.514 14.817 71.6027 14.9086ZM72.7073 13.7245H73.0913V14.6155H74.3011V13.7245H74.6848V15.8231H74.3011V14.9437H73.0913V15.8231H72.7073V13.7245ZM75.829 13.7242H76.2153V15.2536L77.5161 13.7242H77.8649V15.8231H77.4812V14.2933L76.1824 15.8231H75.829V13.7242Z" fill="#25B1D9"/>
</svg>
